<svg xmlns="http://www.w3.org/2000/svg" width="88" height="87" fill="none" viewBox="0 0 88 87"><path fill="#002342" fill-rule="evenodd" d="M44.0001 0L53.627 18.2994L72.719 10.4935L68.3766 30.7239L88 37.0638L71.72 49.7592L82.6931 67.2786L62.093 66.4985L59.281 87L44 73.1094L28.7191 87L25.9071 66.4985L5.30703 67.2786L16.2801 49.7592L0 37.0638L19.6235 30.7239L15.2811 10.4935L34.3729 18.2994L44.0001 0ZM44 9.76712L36.4693 24.0816L21.535 17.9755L24.9318 33.8006L9.58155 38.7599L22.3165 48.6907L13.7329 62.395L29.847 61.7848L32.0466 77.8218L44 66.956L55.9534 77.8218L58.153 61.7848L74.2671 62.395L65.6836 48.6907L78.4185 38.7599L63.0683 33.8006L66.4651 17.9755L51.5306 24.0816L44 9.76712ZM44 15.2042L50.3637 27.3005L62.9837 22.1407L60.1134 35.5132L73.0849 39.704L62.3235 48.0959L69.5767 59.6765L55.9597 59.1608L54.101 72.7126L44 63.5307L33.899 72.7126L32.0403 59.1608L18.4234 59.6765L25.6766 48.0959L14.9152 39.704L27.8867 35.5132L25.0164 22.1407L37.6364 27.3005L44 15.2042ZM44 24.9714L39.7328 33.0827L31.2702 29.6227L33.1949 38.5899L24.4967 41.4001L31.7129 47.0274L26.8492 54.7929L35.9803 54.4471L37.2267 63.5344L44 57.3774L50.7734 63.5344L52.0198 54.4471L61.1509 54.7929L56.2872 47.0274L63.5033 41.4001L54.8051 38.5899L56.7299 29.6227L48.2672 33.0827L44 24.9714ZM44 31.9287L46.7739 37.2016L52.2751 34.9522L51.0238 40.7815L56.6782 42.6081L51.9872 46.2662L55.1491 51.3143L49.2132 51.0894L48.403 56.9967L44 52.9942L39.597 56.9967L38.7868 51.0894L32.851 51.3143L36.0129 46.2662L31.3219 42.6081L36.9763 40.7815L35.7249 34.9522L41.2262 37.2016L44 31.9287Z" clip-rule="evenodd"/></svg>