<svg xmlns="http://www.w3.org/2000/svg" width="87" height="78" fill="none" viewBox="0 0 87 78"><path fill="#002342" d="M48.4802 40.6549C44.084 42.9213 42.8168 47.8556 43.3982 52.3551C43.7838 54.4335 45.0357 56.31 45.9473 58.2007C46.7071 59.9636 46.6542 61.6804 45.3888 63.2323C41.9656 67.9992 34.0646 64.7744 35.3681 58.5649C34.0432 58.6145 33.1107 59.2743 32.425 60.2462C28.6269 64.9735 31.3895 71.3189 36.1264 74.2006C36.8894 74.7213 38.0156 75.3967 37.5266 76.477C37.2563 77.093 36.7328 77.3122 36.066 77.2585C25.8827 76.4382 18.3525 70.1736 15.5474 60.3617C13.2478 54.2383 15.6378 40.8296 22.4481 38.6855C23.7818 38.4197 24.8654 39.3807 24.6936 40.7283C24.5519 41.8394 24.1724 42.9315 23.8048 43.9999C22.4778 47.222 25.7285 52.1358 29.1861 49.9096C30.071 49.3667 30.5446 48.5893 30.6105 47.5589C30.9715 41.4172 24.6342 39.0769 25.8625 32.2632C25.6186 29.2102 31.4335 20.0634 34.6331 22.2264C35.1825 22.6906 35.3619 23.3153 35.1598 23.9798C34.6171 25.7774 33.4568 27.4166 33.7005 29.3703C33.8613 32.1376 37.5983 34.2154 40.0096 32.8113C42.3035 31.4756 44.3548 28.7659 42.3404 25.3327C41.6213 24.1069 40.9648 22.8444 40.2556 21.6127C32.2271 8.67837 51.5349 -4.52757 52.084 2.3011C51.4746 5.46826 48.8685 7.93885 48.668 11.2623C48.4618 12.4795 48.7614 13.6109 49.4045 14.6719C57.2037 25.7526 65.9107 24.1329 59.7695 40.8176C59.3432 42.175 59.8416 43.6062 61.521 43.0526C65.5131 41.9129 64.5908 37.1279 64.8154 33.9305C64.8599 33.2054 65.1209 32.6129 65.8739 32.3795C66.6038 32.1532 67.1968 32.4622 67.5302 33.063C68.3312 34.5065 69.145 35.9549 69.7896 37.4712C73.4263 46.0244 73.5671 54.6364 70.0275 63.2564C68.7885 66.2734 66.8894 68.8612 64.364 70.9186C62.6866 72.2851 60.8987 73.53 59.077 74.6999C57.9175 75.4445 56.9192 75.3415 56.3785 74.6613C54.363 72.658 64.4095 62.9893 57.1701 57.1613C51.1189 53.0537 45.845 48.8453 48.4802 40.6549Z"/><path fill="#002342" d="M70.4917 25.3537C66.9932 24.9538 68.2812 21.406 70.1101 19.6774C74.0732 15.572 77.9615 11.3746 82.1253 7.47128C83.2645 6.37323 85.2344 5.93881 86.21 7.49908C86.7602 8.3049 86.7492 9.48894 86.0927 10.3376C81.7125 15.0742 77.0932 19.6052 72.6355 24.2738C72.0417 24.886 71.3971 25.3718 70.4917 25.3537Z"/><path fill="#002342" d="M12.7411 0C13.5703 0.0205833 14.4014 0.65362 15.1387 1.44956C18.9472 5.78552 23.2913 9.72901 26.6624 14.4176C27.8053 16.3494 25.5345 18.5331 23.6585 17.2775C19.3006 13.6269 15.5877 9.18988 11.6275 5.10746C9.78718 3.37509 9.25993 0.12726 12.7411 0Z"/><path fill="#002342" d="M10.1059 42.8337C7.4485 42.1891 4.78053 41.5852 2.11954 40.9584C-0.575294 40.4616 -0.820908 36.5006 2.07996 36.1654C2.5599 36.1264 3.07003 36.1642 3.53534 36.2858C6.22369 37.0805 9.04252 37.5729 11.637 38.6302C13.8717 39.8983 12.5625 43.0167 10.138 42.6924C10.1272 42.7395 10.1166 42.7866 10.1059 42.8337Z"/><path fill="#002342" d="M84.4098 33.7811C87.1092 33.7728 88 37.3066 85.5501 38.472C83.3758 39.264 81.0339 39.5733 78.7884 40.1347C77.478 40.4168 76.3146 39.7983 75.9602 38.6914C75.3505 37.0244 77.0039 35.7018 78.5927 35.3838C80.5254 34.8272 82.4324 34.1627 84.4098 33.7811Z"/><path fill="#002342" d="M62.4366 5.01058C67.7981 5.82105 62.7 11.7859 61.4831 14.3506C60.8853 15.3557 59.74 15.5994 58.8371 15.1771C57.3633 14.5689 57.4651 12.624 58.1287 11.3131C59.2111 9.33783 59.7641 5.0469 62.4366 5.01058Z"/><path fill="#002342" d="M17.4847 29.2486C15.3249 28.7676 13.3701 27.4731 11.4011 26.4878C10.1788 25.7793 9.88524 24.2861 10.5083 23.1667C11.1154 22.0758 12.5102 21.5198 13.7304 22.1611C15.5244 23.1042 17.2774 24.162 18.9155 25.353C20.8335 26.9368 19.5616 28.9133 17.5625 29.3769C17.5365 29.3342 17.5106 29.2915 17.4847 29.2486Z"/></svg>