<svg width="101" height="101" viewBox="0 0 101 101" fill="none" xmlns="http://www.w3.org/2000/svg">
<g clip-path="url(#clip0_49_2079)">
<path d="M91.318 87.6612C90.2544 87.6586 89.1997 87.467 88.203 87.0955V87.0771C86.7432 86.4588 85.4239 85.5511 84.3246 84.4087C83.2254 83.2663 82.3691 81.913 81.8075 80.4305C81.6107 79.8065 81.2169 79.2632 80.6851 78.882C80.1534 78.5008 79.5124 78.3024 78.8583 78.3164C78.2053 78.3196 77.5697 78.5265 77.04 78.9082C76.5102 79.2899 76.1128 79.8274 75.9031 80.4457C75.2136 82.4558 73.9417 84.2153 72.2491 85.5002C70.5566 86.7851 68.52 87.5373 66.3985 87.6612C64.2745 87.5363 62.2358 86.782 60.542 85.4943C58.8483 84.2065 57.5763 82.4437 56.888 80.4305C56.6833 79.8114 56.2875 79.2732 55.7575 78.8934C55.2276 78.5135 54.5908 78.3115 53.9388 78.3164C53.2859 78.3196 52.6502 78.5265 52.1205 78.9082C51.5908 79.2899 51.1934 79.8274 50.9837 80.4457C50.2942 82.4558 49.0222 84.2153 47.3297 85.5002C45.6371 86.7851 43.6005 87.5373 41.4791 87.6612C39.3551 87.5363 37.3163 86.782 35.6226 85.4943C33.9289 84.2065 32.6568 82.4437 31.9686 80.4305C31.7589 79.8129 31.3607 79.2767 30.8301 78.8975C30.2994 78.5182 29.6631 78.3152 29.0109 78.3169C28.3587 78.3185 27.7235 78.5249 27.1948 78.9069C26.6661 79.2888 26.2707 79.8271 26.0642 80.4457C25.3747 82.4558 24.1028 84.2153 22.4102 85.5002C20.7177 86.7851 18.6811 87.5373 16.5596 87.6612H7.21484V93.891H16.5596C18.9771 93.9124 21.3654 93.3629 23.5305 92.2873C25.6955 91.2116 27.5761 89.6402 29.0194 87.7007C30.4774 89.6243 32.361 91.1842 34.5227 92.2582C36.6844 93.3322 39.0653 93.891 41.4791 93.891C43.8928 93.891 46.2738 93.3322 48.4355 92.2582C50.5971 91.1842 52.4808 89.6243 53.9388 87.7007C55.3969 89.6243 57.2805 91.1842 59.4422 92.2582C61.6038 93.3322 63.9848 93.891 66.3985 93.891C68.8123 93.891 71.1933 93.3322 73.3549 92.2582C75.5166 91.1842 77.4002 89.6243 78.8583 87.7007C80.5927 89.9422 82.8906 91.6835 85.5177 92.7469C87.3566 93.5076 89.328 93.8964 91.318 93.891H94.4329V87.6612H91.318Z" fill="#002342"/>
<path d="M88.203 42.8996L93.6768 47.1671L97.5478 42.271L52.7311 7.33927C52.1783 6.90751 51.497 6.67297 50.7956 6.67297C50.0942 6.67297 49.4129 6.90751 48.8602 7.33927L4.09985 42.2436L7.97078 47.1397L13.4446 42.8719V59.0306C12.8682 60.4299 12.0211 61.7016 10.9521 62.7728C9.88298 63.8439 8.61294 64.6934 7.21478 65.2726V71.7626C10.9417 71.0141 14.2657 68.9274 16.5596 65.8962C18.0176 67.8198 19.9013 69.3797 22.0629 70.4537C24.2246 71.5277 26.6056 72.0866 29.0193 72.0866C31.4331 72.0866 33.814 71.5277 35.9757 70.4537C38.1373 69.3797 40.021 67.8198 41.479 65.8962C42.9371 67.8198 44.8207 69.3797 46.9824 70.4537C49.144 71.5277 51.525 72.0866 53.9387 72.0866C56.3525 72.0866 58.7335 71.5277 60.8951 70.4537C63.0568 69.3797 64.9404 67.8198 66.3985 65.8962C67.8417 67.8357 69.7223 69.4072 71.8874 70.4828C74.0524 71.5584 76.4408 72.1079 78.8582 72.0865H94.4328V65.8567H88.203V42.8996ZM69.3536 58.64C69.1471 58.0213 68.7517 57.4831 68.223 57.1011C67.6944 56.7192 67.0591 56.5128 66.4069 56.5111C65.7547 56.5094 65.1184 56.7125 64.5878 57.0917C64.0571 57.4709 63.6589 58.0071 63.4493 58.6247C62.7612 60.6382 61.4893 62.4013 59.7955 63.6893C58.1018 64.9772 56.0629 65.7317 53.9387 65.8567C51.8173 65.7328 49.7807 64.9806 48.0882 63.6957C46.3956 62.4108 45.1236 60.6513 44.4342 58.6412C44.2245 58.0229 43.8271 57.4854 43.2973 57.1037C42.7676 56.722 42.1319 56.5151 41.479 56.5119C40.827 56.507 40.1902 56.709 39.6603 57.0889C39.1304 57.4688 38.7345 58.0069 38.5298 58.626C37.8415 60.6393 36.5695 62.4021 34.8758 63.6898C33.182 64.9775 31.1433 65.7318 29.0193 65.8567C26.9635 65.7615 24.981 65.0641 23.3184 63.8512C21.6558 62.6383 20.3864 60.9635 19.668 59.035L19.6745 38.0139L50.7958 13.7486L81.9731 38.0459L81.9784 65.8567H78.8582C76.7368 65.7328 74.7002 64.9806 73.0076 63.6957C71.3151 62.4108 70.0431 60.6501 69.3536 58.64Z" fill="#002342"/>
</g>
<defs>
<clipPath id="clip0_49_2079">
<rect width="99.6778" height="99.6778" fill="white" transform="translate(0.984863 0.443115)"/>
</clipPath>
</defs>
</svg>
