<svg width="85" height="85" viewBox="0 0 85 85" fill="none" xmlns="http://www.w3.org/2000/svg">
<path d="M78.2721 20.6446L40.7549 58.1615C37.0189 61.8975 25.9288 63.6279 23.4513 61.1503C20.9737 58.6728 22.6648 47.5828 26.4008 43.8468L63.9574 6.29039C64.8835 5.27994 66.0047 4.4677 67.2537 3.90258C68.5023 3.33746 69.8528 3.03111 71.2233 3.00224C72.5934 2.97342 73.9557 3.22251 75.2271 3.73458C76.4985 4.24664 77.6531 5.01114 78.6209 5.98171C79.5888 6.95228 80.3501 8.10887 80.8586 9.3817C81.3671 10.6546 81.6129 12.0172 81.5802 13.3875C81.5476 14.7579 81.2373 16.1075 80.669 17.3547C80.1004 18.602 79.2852 19.7211 78.2721 20.6446Z" stroke="#002342" stroke-width="5" stroke-linecap="round" stroke-linejoin="round"/>
<path fill-rule="evenodd" clip-rule="evenodd" d="M5.3256 14.08C8.73538 10.6702 13.3598 8.75464 18.182 8.75464H37.8451C39.199 8.75464 40.2966 9.85221 40.2966 11.2061C40.2966 12.5601 39.199 13.6576 37.8451 13.6576H18.182C14.6602 13.6576 11.2829 15.0566 8.79256 17.5469C6.30221 20.0373 4.90301 23.4149 4.90301 26.9366V66.2628C4.90301 69.7847 6.30222 73.1621 8.7925 75.6523L8.79261 75.6524C11.2829 78.1429 14.6602 79.5418 18.182 79.5418H61.4408C64.9975 79.5418 67.1572 78.1578 68.5467 76.0314C70.0397 73.7466 70.7871 70.3625 70.7871 66.2628V46.5997C70.7871 45.2458 71.8847 44.1482 73.2386 44.1482C74.5926 44.1482 75.6901 45.2458 75.6901 46.5997V66.2628C75.6901 70.8149 74.8842 75.296 72.6511 78.7135C70.3144 82.2894 66.5752 84.4448 61.4408 84.4448H18.182C13.3598 84.4448 8.73536 82.5293 5.32554 79.1192C1.91586 75.7097 0 71.0851 0 66.2628V26.9366C0 22.1143 1.91591 17.4897 5.32559 14.08L5.3256 14.08Z" fill="#002342"/>
</svg>
