<svg width="88" height="87" viewBox="0 0 88 87" fill="none" xmlns="http://www.w3.org/2000/svg">
<path fill-rule="evenodd" clip-rule="evenodd" d="M28 15.8182C28 7.08204 35.1634 0 44 0C52.8364 0 60 7.08204 60 15.8182C60 24.5543 52.8364 31.6364 44 31.6364H12C9.79088 31.6364 8 29.8658 8 27.6818C8 25.4978 9.79088 23.7273 12 23.7273H44C48.4184 23.7273 52 20.1863 52 15.8182C52 11.4501 48.4184 7.90909 44 7.90909C39.5817 7.90909 36 11.4501 36 15.8182V16.2136C36 18.3977 34.2091 20.1682 32 20.1682C29.7909 20.1682 28 18.3977 28 16.2136V15.8182ZM67.6 19.7727C67.6 17.5887 69.3908 15.8182 71.6 15.8182H72C80.8364 15.8182 88 22.9002 88 31.6364C88 40.3724 80.8364 47.4545 72 47.4545H20C17.7909 47.4545 16 45.6841 16 43.5C16 41.3159 17.7909 39.5455 20 39.5455H72C76.4184 39.5455 80 36.0046 80 31.6364C80 27.2683 76.4184 23.7273 72 23.7273H71.6C69.3908 23.7273 67.6 21.9567 67.6 19.7727ZM0 43.5C0 41.3159 1.79086 39.5455 4 39.5455H8C10.2091 39.5455 12 41.3159 12 43.5C12 45.6841 10.2091 47.4545 8 47.4545H4C1.79086 47.4545 0 45.6841 0 43.5ZM16 59.3182C16 57.1341 17.7909 55.3636 20 55.3636H24C26.2091 55.3636 28 57.1341 28 59.3182C28 61.5023 26.2091 63.2727 24 63.2727H20C17.7909 63.2727 16 61.5023 16 59.3182ZM32 59.3182C32 57.1341 33.7909 55.3636 36 55.3636H52C60.8364 55.3636 68 62.4458 68 71.1818C68 79.9178 60.8364 87 52 87C43.1636 87 36 79.9178 36 71.1818V70.7864C36 68.6023 37.7908 66.8318 40 66.8318C42.2092 66.8318 44 68.6023 44 70.7864V71.1818C44 75.55 47.5816 79.0909 52 79.0909C56.4184 79.0909 60 75.55 60 71.1818C60 66.8136 56.4184 63.2727 52 63.2727H36C33.7909 63.2727 32 61.5023 32 59.3182Z" fill="#002342"/>
</svg>
