<svg width="20" height="20" viewBox="0 0 20 20" fill="none" xmlns="http://www.w3.org/2000/svg">
<g clip-path="url(#clip0_46_1154)">
<path d="M9.47267 11.1655C9.51298 11.1489 9.55486 11.1259 9.59279 11.1054C9.53511 11.3828 9.64574 11.6309 10.0369 11.5456C11.6878 11.1884 12.4583 9.82675 12.2007 8.24464C12.1382 7.84951 11.6933 7.96647 11.4618 8.12215C10.9307 8.47698 10.4289 8.88792 9.9816 9.34469C10.0164 8.08343 10.1452 6.82849 10.3973 5.5854C10.4558 5.30328 10.1728 5.12784 9.91996 5.19343C9.59912 5.2772 9.40945 5.5617 9.34544 5.86042C9.02301 7.44648 8.90052 9.05308 8.92502 10.6684C8.13871 10.6091 7.7499 10.1484 7.66218 9.51223C7.71355 9.22536 7.72856 8.93138 7.71118 8.63977C7.87634 8.48172 7.9933 8.26756 7.95379 8.04075C7.90321 7.75705 7.57288 7.6962 7.34607 7.83133C6.39143 8.39558 5.28349 9.07679 4.82434 10.1199C4.60228 10.6225 4.68367 11.2405 5.27163 11.4334C5.86117 11.6246 6.50997 11.284 6.92961 10.8928C7.28522 11.446 7.91269 11.7921 8.81122 11.7692C9.09809 11.7613 9.37547 11.4547 9.47267 11.1655ZM11.1947 9.41977C11.1488 9.97216 10.8485 10.3325 10.1302 10.4882C10.436 10.0923 10.8019 9.73824 11.1947 9.41977ZM6.36457 10.2322C6.26815 10.3373 6.02949 10.4131 5.87381 10.3768C5.7695 10.3491 5.77345 10.3278 5.74816 10.2796C5.76555 10.3112 5.75527 10.2535 5.83114 10.1239C6.00104 9.83228 6.28238 9.58177 6.59137 9.36129C6.57952 9.52566 6.57952 9.68529 6.59295 9.84019C6.54475 9.98085 6.47204 10.1144 6.36457 10.2322Z" fill="#010002"/>
<path d="M14.8913 11.002C15.4405 10.7309 15.4563 9.68621 14.7143 10.0474C14.4013 10.1999 13.566 10.5745 13.4301 10.0102C13.306 9.50129 13.8158 8.98445 14.1809 8.70154C14.3934 8.53558 14.5894 8.19103 14.4416 7.92787C14.2931 7.65918 13.9335 7.76666 13.7438 7.91602C12.9686 8.51978 12.153 9.57241 12.4036 10.6069C12.6825 11.7693 14.1224 11.375 14.8913 11.002Z" fill="#010002"/>
<path d="M19.785 2.93337C19.6491 2.82827 19.4721 2.79033 19.3069 2.83222C18.6344 2.99185 17.5344 3.23446 16.9986 3.31586V2.18657C16.9986 1.24853 16.447 0.688232 15.5224 0.688232C14.0043 0.688232 11.1506 2.43393 10.0008 3.29136C8.85017 2.43393 5.99652 0.688232 4.47922 0.688232C3.55382 0.688232 3.00221 1.24853 3.00221 2.18657V3.31665C2.46641 3.23525 1.36558 2.99185 0.693061 2.83222C0.528687 2.79112 0.350877 2.82906 0.214952 2.93337C0.0798167 3.0369 0 3.19574 0 3.36565V17.656C0 17.8133 0.0695432 17.9642 0.193615 18.0709C0.315315 18.1736 0.4789 18.2202 0.639324 18.1973C6.16485 17.7097 9.17733 18.9141 10.0008 19.3116C10.8235 18.9133 13.8359 17.7097 19.3623 18.1973C19.5227 18.2202 19.6855 18.1736 19.8072 18.0709C19.9297 17.9634 20 17.8133 20 17.656V3.36565C20 3.19574 19.9202 3.0369 19.785 2.93337ZM4.47764 1.78591C5.77051 1.78591 8.61546 3.52844 9.43654 4.13141L9.99921 4.52733L10.5619 4.13141C11.383 3.52765 14.2295 1.78591 15.5208 1.78591C15.765 1.78591 15.8717 1.80171 15.8717 2.18657L15.8725 13.1136C12.3147 13.2281 10.588 13.9244 9.99921 14.2255C9.41046 13.9236 7.68374 13.2274 4.12597 13.1136V2.18657C4.12597 1.80171 4.23344 1.78591 4.47764 1.78591ZM18.8762 16.0225C13.4155 15.3729 10.7713 16.4761 10.0008 16.891C9.23107 16.4769 6.58369 15.3729 1.12455 16.0225V4.05792C1.72436 4.19226 2.55255 4.37007 3.003 4.42539V14.2065H3.64549C5.14225 14.2065 7.9224 14.3551 9.72025 15.3634L10 15.5191L10.2798 15.3634C12.0784 14.3558 14.857 14.2065 16.3553 14.2065H16.9986V4.42539C17.4482 4.37086 18.2772 4.19305 18.8762 4.05792V16.0225Z" fill="#010002"/>
</g>
<defs>
<clipPath id="clip0_46_1154">
<rect width="20" height="20" fill="white"/>
</clipPath>
</defs>
</svg>
