<svg width="20" height="20" viewBox="0 0 20 20" fill="none" xmlns="http://www.w3.org/2000/svg">
<path d="M18.75 10C18.75 10.1658 18.6842 10.3248 18.5669 10.442C18.4497 10.5592 18.2908 10.625 18.125 10.625H16.0109L13.0594 16.5297C13.0074 16.6336 12.9276 16.7209 12.8288 16.7819C12.73 16.8429 12.6161 16.8751 12.5 16.875H12.4688C12.3475 16.869 12.2307 16.8279 12.1324 16.7566C12.0342 16.6853 11.9589 16.5869 11.9156 16.4735L7.44922 4.74692L4.94375 10.2586C4.89411 10.3679 4.81409 10.4605 4.71324 10.5254C4.61239 10.5904 4.49497 10.625 4.375 10.625H1.875C1.70924 10.625 1.55027 10.5592 1.43306 10.442C1.31585 10.3248 1.25 10.1658 1.25 10C1.25 9.83428 1.31585 9.67531 1.43306 9.5581C1.55027 9.44089 1.70924 9.37504 1.875 9.37504H3.97266L6.93125 2.86645C6.98226 2.75413 7.06536 2.65942 7.17009 2.59424C7.27482 2.52907 7.39649 2.49634 7.51979 2.50018C7.64308 2.50402 7.76248 2.54427 7.86295 2.61584C7.96342 2.68741 8.04046 2.78711 8.08438 2.90239L12.5773 14.6993L15.0656 9.72192C15.1174 9.61779 15.1971 9.53016 15.296 9.46888C15.3948 9.4076 15.5087 9.3751 15.625 9.37504H18.125C18.2908 9.37504 18.4497 9.44089 18.5669 9.5581C18.6842 9.67531 18.75 9.83428 18.75 10Z" fill="black"/>
</svg>
