<svg width="62" height="56" viewBox="0 0 62 56" fill="none" xmlns="http://www.w3.org/2000/svg">
<path d="M10.3314 36.6971C9.83058 34.7398 9.56445 32.6887 9.56445 30.5754C9.56445 16.9741 20.5905 5.94775 34.1921 5.94775C47.7934 5.94775 58.8198 16.9738 58.8198 30.5754C58.8198 44.1767 47.7937 55.203 34.1921 55.203C26.873 55.203 20.2995 52.0102 15.7886 46.9411" stroke="white" stroke-width="1.5" stroke-miterlimit="10" stroke-linecap="round" stroke-linejoin="round"/>
<path d="M54.7999 46.2805L46.5876 47.1702C46.0253 47.231 45.5151 46.8208 45.4542 46.2582L40.7716 3.02906C40.7108 2.46637 41.121 1.9565 41.6837 1.89565L49.8959 1.00598C50.4582 0.945134 50.9685 1.35534 51.0293 1.91803L55.7119 45.1471C55.7728 45.7095 55.3626 46.2197 54.7999 46.2805Z" fill="#232B48" stroke="white" stroke-width="1.5" stroke-miterlimit="10" stroke-linecap="round" stroke-linejoin="round"/>
<path d="M41.6387 11.0367L46.3898 10.522" stroke="white" stroke-width="1.5" stroke-miterlimit="10" stroke-linecap="round" stroke-linejoin="round"/>
<path d="M42.0215 14.5692L46.7726 14.0544" stroke="white" stroke-width="1.5" stroke-miterlimit="10" stroke-linecap="round" stroke-linejoin="round"/>
<path d="M42.4043 18.1017L47.1555 17.5869" stroke="white" stroke-width="1.5" stroke-miterlimit="10" stroke-linecap="round" stroke-linejoin="round"/>
<path d="M42.7871 21.6339L47.5383 21.1191" stroke="white" stroke-width="1.5" stroke-miterlimit="10" stroke-linecap="round" stroke-linejoin="round"/>
<path d="M43.1699 25.1664L47.9211 24.6516" stroke="white" stroke-width="1.5" stroke-miterlimit="10" stroke-linecap="round" stroke-linejoin="round"/>
<path d="M43.5527 28.6987L48.3039 28.1843" stroke="white" stroke-width="1.5" stroke-miterlimit="10" stroke-linecap="round" stroke-linejoin="round"/>
<path d="M43.9346 32.2312L48.6857 31.7168" stroke="white" stroke-width="1.5" stroke-miterlimit="10" stroke-linecap="round" stroke-linejoin="round"/>
<path d="M44.3174 35.764L49.0689 35.2493" stroke="white" stroke-width="1.5" stroke-miterlimit="10" stroke-linecap="round" stroke-linejoin="round"/>
<path d="M44.7002 39.2965L49.4514 38.7817" stroke="white" stroke-width="1.5" stroke-miterlimit="10" stroke-linecap="round" stroke-linejoin="round"/>
<path d="M45.083 42.829L49.8342 42.3142" stroke="white" stroke-width="1.5" stroke-miterlimit="10" stroke-linecap="round" stroke-linejoin="round"/>
<path d="M47.6581 4.79587C47.7473 5.61768 47.1531 6.35627 46.3313 6.44545C45.5095 6.53427 44.7709 5.94047 44.6817 5.1183C44.5925 4.29648 45.1867 3.55789 46.0085 3.46906C46.8303 3.37989 47.5689 3.97405 47.6581 4.79587Z" fill="#292A61"/>
<path d="M60.0618 7.17727L44.7885 40.0105L40.3213 43.1446L39.8408 37.7087L55.1141 4.87547L55.7971 3.40704C56.4328 2.04072 58.0555 1.44831 59.4218 2.08373C60.7881 2.71951 61.3805 4.34216 60.7451 5.70848L60.0621 7.17692L60.0618 7.17727Z" fill="#232B48"/>
<path d="M16.502 39.3555H1" stroke="white" stroke-width="1.5" stroke-miterlimit="10" stroke-linecap="round" stroke-linejoin="round"/>
<path d="M19.2481 44.2673H3.74609" stroke="white" stroke-width="1.5" stroke-miterlimit="10" stroke-linecap="round" stroke-linejoin="round"/>
<path d="M5.63867 12.6919L15.2151 18.9325L17.1518 22.4876L21.4557 22.8618V28.6163L26.3996 32.8191L27.7435 36.6971L33.9155 35.6595L37.1021 42.7544L39.9281 43.6563L39.9267 47.5664L41.7081 49.2471" stroke="white" stroke-width="1.5" stroke-miterlimit="10" stroke-linecap="round" stroke-linejoin="round"/>
<path d="M19.248 15.2249L19.8002 17.8487L23.46 18.8846L24.7025 16.1226L23.1239 14.1201L19.248 15.2249Z" stroke="white" stroke-width="1.5" stroke-miterlimit="10" stroke-linecap="round" stroke-linejoin="round"/>
<path d="M28.6416 19.8778L31.8177 16.0803L35.9607 17.9789L35.4081 20.879L32.301 21.4659L28.6416 19.8778Z" stroke="white" stroke-width="1.5" stroke-miterlimit="10" stroke-linecap="round" stroke-linejoin="round"/>
<path d="M24.9133 21.8701L23.6016 24.5713L27.7442 25.9439V22.4223L24.9133 21.8701Z" stroke="white" stroke-width="1.5" stroke-miterlimit="10" stroke-linecap="round" stroke-linejoin="round"/>
<path d="M29.6904 27.3165L31.2096 29.94V32.4257L35.6285 33.4616L36.457 29.5259L33.7642 25.9438L29.6904 27.3165Z" stroke="white" stroke-width="1.5" stroke-miterlimit="10" stroke-linecap="round" stroke-linejoin="round"/>
<path d="M10.459 8.71219L12.9965 8.19287L14.7429 9.98094L13.7463 12.6915L10.9203 11.456L10.459 8.71219Z" stroke="white" stroke-width="1.5" stroke-miterlimit="10" stroke-linecap="round" stroke-linejoin="round"/>
<path d="M27.7436 36.6968V40.738L23.6006 44.0596" stroke="white" stroke-width="1.5" stroke-miterlimit="10" stroke-linecap="round" stroke-linejoin="round"/>
<path d="M21.9754 33.4616C21.9754 33.9456 21.583 34.338 21.099 34.338C20.615 34.338 20.2227 33.9456 20.2227 33.4616C20.2227 32.9776 20.615 32.5852 21.099 32.5852C21.583 32.5852 21.9754 32.9776 21.9754 33.4616Z" fill="#292A61"/>
<path d="M15.1678 24.0646C15.1678 24.5486 14.7754 24.941 14.2914 24.941C13.8074 24.941 13.415 24.5486 13.415 24.0646C13.415 23.5806 13.8074 23.1882 14.2914 23.1882C14.7754 23.1882 15.1678 23.5806 15.1678 24.0646Z" fill="#292A61"/>
<path d="M35.744 48.3708C35.744 48.8548 35.3516 49.2471 34.8676 49.2471C34.3836 49.2471 33.9912 48.8548 33.9912 48.3708C33.9912 47.8868 34.3836 47.4944 34.8676 47.4944C35.3516 47.4944 35.744 47.8868 35.744 48.3708Z" fill="#292A61"/>
<path d="M60.0613 7.17725L44.7881 40.0105" stroke="white" stroke-width="1.5" stroke-miterlimit="10" stroke-linecap="round" stroke-linejoin="round"/>
<path d="M39.8408 37.7087L55.1141 4.87549" stroke="white" stroke-width="1.5" stroke-miterlimit="10" stroke-linecap="round" stroke-linejoin="round"/>
<path d="M60.0613 7.1774L60.7443 5.70897C61.3801 4.34265 60.7877 2.71965 59.421 2.08422C58.0547 1.4488 56.432 2.04121 55.7963 3.40753L55.1133 4.87596" stroke="white" stroke-width="1.5" stroke-miterlimit="10" stroke-linecap="round" stroke-linejoin="round"/>
<path d="M55.1143 4.87549L60.0623 7.17728" stroke="white" stroke-width="1.5" stroke-miterlimit="10" stroke-linecap="round" stroke-linejoin="round"/>
<path d="M44.7885 40.0105L39.8408 37.7087" stroke="white" stroke-width="1.5" stroke-miterlimit="10" stroke-linecap="round" stroke-linejoin="round"/>
<path d="M39.8408 37.7087L40.3213 43.1446L44.7885 40.0105" stroke="white" stroke-width="1.5" stroke-miterlimit="10" stroke-linecap="round" stroke-linejoin="round"/>
</svg>
