<svg width="20" height="20" viewBox="0 0 20 20" fill="none" xmlns="http://www.w3.org/2000/svg">
<path d="M11.25 3.49976C11.4822 3.49976 11.705 3.59243 11.8691 3.75659L17.4932 9.38062H17.4941C17.5754 9.46181 17.6396 9.55868 17.6836 9.66479C17.7276 9.77091 17.7509 9.88489 17.751 9.99976C17.751 10.1146 17.7275 10.2286 17.6836 10.3347C17.6396 10.4408 17.5754 10.5377 17.4941 10.6189L11.8691 16.2439C11.705 16.4081 11.4822 16.5007 11.25 16.5007C11.0178 16.5007 10.795 16.4081 10.6309 16.2439C10.4668 16.0798 10.375 15.8568 10.375 15.6248C10.3751 15.3929 10.467 15.1706 10.6309 15.0066L14.7627 10.8748H3.125C2.89294 10.8748 2.66995 10.783 2.50586 10.6189C2.34187 10.4548 2.25 10.2317 2.25 9.99976C2.25009 9.76796 2.34204 9.54557 2.50586 9.38159C2.66995 9.2175 2.89294 9.12476 3.125 9.12476H14.7627L10.6309 4.9939C10.4668 4.82975 10.375 4.60683 10.375 4.37476C10.3751 4.14287 10.467 3.92064 10.6309 3.75659C10.795 3.59243 11.0178 3.49976 11.25 3.49976Z" fill="#1E1E1E" stroke="#1E1E1E" stroke-width="0.5"/>
</svg>
