<svg width="20" height="20" viewBox="0 0 20 20" fill="none" xmlns="http://www.w3.org/2000/svg">
<path d="M8.75 3.49976C8.98198 3.49988 9.20412 3.59255 9.36816 3.75659C9.5322 3.92066 9.62491 4.14276 9.625 4.37476C9.625 4.60691 9.53232 4.82974 9.36816 4.9939L5.23633 9.12476H16.875C17.1069 9.12488 17.3292 9.21761 17.4932 9.38159C17.6571 9.5456 17.7499 9.76785 17.75 9.99976C17.75 10.2318 17.6573 10.4548 17.4932 10.6189C17.3292 10.7828 17.1069 10.8746 16.875 10.8748H5.23633L9.36816 15.0066C9.44938 15.0878 9.51462 15.1837 9.55859 15.2898C9.60254 15.3959 9.62495 15.5099 9.625 15.6248C9.625 15.7395 9.60246 15.8536 9.55859 15.9597C9.5146 16.0659 9.44945 16.1626 9.36816 16.2439C9.28704 16.325 9.19091 16.3894 9.08496 16.4333C8.97891 16.4773 8.86479 16.5007 8.75 16.5007C8.63505 16.5007 8.52026 16.4773 8.41406 16.4333C8.30811 16.3894 8.21198 16.325 8.13086 16.2439L2.50586 10.6189C2.42452 10.5376 2.35946 10.4409 2.31543 10.3347C2.27153 10.2286 2.24902 10.1146 2.24902 9.99976C2.24907 9.88489 2.27144 9.77091 2.31543 9.66479C2.34845 9.58516 2.39372 9.51145 2.44824 9.44507L2.50586 9.38062L8.13086 3.75659C8.29502 3.59243 8.51784 3.49976 8.75 3.49976Z" fill="#1E1E1E" stroke="#1E1E1E" stroke-width="0.5"/>
</svg>
