<svg width="68" height="57" viewBox="0 0 68 57" fill="none" xmlns="http://www.w3.org/2000/svg">
<path d="M61.4988 28.0054C61.5334 28.5528 61.551 29.105 61.551 29.6612C61.551 43.8356 50.1409 55.3262 36.0657 55.3262C28.4025 55.3262 21.5292 51.9201 16.8574 46.5291" stroke="#292A61" stroke-width="1.3" stroke-miterlimit="10" stroke-linecap="round" stroke-linejoin="round"/>
<path d="M11.4302 36.2594C10.8756 34.1539 10.5801 31.9423 10.5801 29.6611C10.5801 15.4868 21.9902 3.99609 36.0653 3.99609C38.39 3.99609 40.6421 4.30956 42.7821 4.89676" stroke="#292A61" stroke-width="1.3" stroke-miterlimit="10" stroke-linecap="round" stroke-linejoin="round"/>
<path d="M15.6594 39.0859H1" stroke="#292A61" stroke-width="1.3" stroke-miterlimit="10" stroke-linecap="round" stroke-linejoin="round"/>
<path d="M18.6269 43.8772H3.87207" stroke="#292A61" stroke-width="1.3" stroke-miterlimit="10" stroke-linecap="round" stroke-linejoin="round"/>
<path d="M21.0046 31.1125C17.6332 33.1776 17.0613 36.2635 19.3452 38.6915C21.794 41.2947 27.4717 42.8989 29.5932 45.6355C32.2759 49.0958 22.9609 53.9374 18.208 55.9999" stroke="#292A61" stroke-width="1.3" stroke-miterlimit="10" stroke-linecap="round" stroke-linejoin="round"/>
<path d="M32.2707 21.575C35.5598 23.3772 35.366 25.7711 31.8452 27.4396C30.8148 27.9276 29.6293 28.2893 28.4004 28.6159" stroke="#292A61" stroke-width="1.3" stroke-miterlimit="10" stroke-linecap="round" stroke-linejoin="round"/>
<path d="M54.457 47.4281C53.648 45.2705 51.5716 43.1754 48.8345 41.6086C45.0928 39.4668 40.1876 37.6776 42.0707 34.6006C43.417 32.4008 47.3447 30.664 48.0685 28.366C48.6404 26.5504 47.5715 24.5969 46.3029 23.3518C36.5207 13.7518 23.4008 8.60826 9.72266 11.1171" stroke="#292A61" stroke-width="1.3" stroke-miterlimit="10" stroke-linecap="round" stroke-linejoin="round"/>
<path d="M40.0273 23.9023C43.0501 26.8024 40.5851 28.9841 38.0509 30.9409C36.5448 32.1036 35.3779 33.6759 34.9911 35.4355C34.6042 37.1952 35.0617 39.137 36.3863 40.4693" stroke="#292A61" stroke-width="1.3" stroke-miterlimit="10" stroke-linecap="round" stroke-linejoin="round"/>
<path d="M30.7461 34.0974C28.0702 38.8336 32.039 42.4143 35.1814 44.7429C37.9695 46.8089 40.2519 49.4028 38.1526 52.668C37.5473 53.6097 36.7313 54.3787 35.898 55.1402" stroke="#292A61" stroke-width="1.3" stroke-miterlimit="10" stroke-linecap="round" stroke-linejoin="round"/>
<path d="M23.8552 24.676C25.1302 24.4942 26.0177 23.3058 25.837 22.0218C25.6566 20.7377 24.4765 19.8442 23.2015 20.0259C21.9263 20.2077 21.0391 21.396 21.2196 22.6801C21.4002 23.9641 22.5801 24.8578 23.8552 24.676Z" stroke="#292A61" stroke-width="1.3" stroke-miterlimit="10" stroke-linecap="round" stroke-linejoin="round"/>
<path d="M28.8857 31.8134C28.3289 30.5007 28.1935 29.1806 28.5647 27.7929L30.928 18.9565C31.1134 18.4272 30.9455 17.9244 30.5138 17.66C30.4711 17.6339 30.426 17.6106 30.3787 17.5904C29.8525 17.3659 29.245 17.6135 29.0222 18.1436L27.0425 24.7806C26.851 25.4221 26.3069 25.8933 25.6483 25.9877L22.4942 26.4374C21.8355 26.5308 21.1828 26.2303 20.8222 25.6675L17.0908 19.8448C16.7306 19.3979 16.0787 19.3298 15.635 19.6926C15.5951 19.7252 15.5582 19.7602 15.5244 19.7972C15.1825 20.1717 15.1599 20.7017 15.4839 21.1584L20.1901 28.9868C20.6416 29.7379 20.9373 30.5732 21.0595 31.4425L21.814 36.8098" stroke="#292A61" stroke-width="1.3" stroke-miterlimit="10" stroke-linecap="round" stroke-linejoin="round"/>
<path d="M66.9997 14.5029L54.4294 1L38.5605 9.68048" stroke="#292A61" stroke-width="1.3" stroke-miterlimit="10" stroke-linecap="round" stroke-linejoin="round"/>
<path d="M40.4338 18.1837L41.9716 8.31641L64.4819 11.8741L62.4076 25.1851L57.3826 23.3185L56.3089 20.1119L48.505 22.9878L35.7334 15.386" stroke="#292A61" stroke-width="1.3" stroke-miterlimit="10" stroke-linecap="round" stroke-linejoin="round"/>
<path d="M53.8055 21.0347L48.5059 22.9879L49.5223 16.4656L54.3975 17.236L53.8055 21.0347Z" stroke="#292A61" stroke-width="1.3" stroke-miterlimit="10" stroke-linecap="round" stroke-linejoin="round"/>
<path d="M23.528 45.0488C23.528 45.6083 23.0775 46.0621 22.5218 46.0621C21.9661 46.0621 21.5156 45.6083 21.5156 45.0488C21.5156 44.4891 21.9661 44.0354 22.5218 44.0354C23.0775 44.0354 23.528 44.4891 23.528 45.0488Z" fill="#292A61"/>
<path d="M34.4119 30.4936C34.4119 31.0531 33.9614 31.5069 33.4057 31.5069C32.85 31.5069 32.3994 31.0531 32.3994 30.4936C32.3994 29.9339 32.85 29.4802 33.4057 29.4802C33.9614 29.4802 34.4119 29.9339 34.4119 30.4936Z" fill="#292A61"/>
<path d="M51.1141 46.883C51.1141 47.4425 50.6636 47.8963 50.1078 47.8963C49.5521 47.8963 49.1016 47.4425 49.1016 46.883C49.1016 46.3233 49.5521 45.8696 50.1078 45.8696C50.6636 45.8696 51.1141 46.3233 51.1141 46.883Z" fill="#292A61"/>
</svg>
