<svg width="20" height="20" viewBox="0 0 20 20" fill="none" xmlns="http://www.w3.org/2000/svg">
<path d="M18.3919 5.28733L14.8102 1.62225C14.4208 1.22383 13.8927 1 13.3421 1C12.7914 1 12.2633 1.22383 11.8739 1.62225L1.6081 12.127C1.21874 12.5255 1 13.0659 1 13.6294C1 14.1928 1.21874 14.7332 1.6081 15.1317L4.20872 17.7928C4.27325 17.8588 4.34989 17.9111 4.43422 17.9466C4.51855 17.9822 4.60892 18.0003 4.70013 18H17.6133C17.7968 18 17.9729 17.9254 18.1027 17.7926C18.2325 17.6597 18.3054 17.4796 18.3054 17.2918C18.3054 17.1039 18.2325 16.9238 18.1027 16.791C17.9729 16.6582 17.7968 16.5835 17.6133 16.5835H10.2855L18.3919 8.29198C18.7813 7.89353 19 7.35313 19 6.78965C19 6.22618 18.7813 5.68578 18.3919 5.28733ZM8.32854 16.5835H4.98649L2.58831 14.1295C2.45861 13.9967 2.38575 13.8167 2.38575 13.6289C2.38575 13.4412 2.45861 13.2611 2.58831 13.1283L7.23154 8.37785L11.79 13.0424L8.32854 16.5835ZM17.4126 7.28807L12.7685 12.0412L8.21002 7.3766L12.855 2.62617C12.9193 2.56032 12.9956 2.50808 13.0796 2.47244C13.1636 2.4368 13.2537 2.41845 13.3446 2.41845C13.4356 2.41845 13.5257 2.4368 13.6097 2.47244C13.6937 2.50808 13.77 2.56032 13.8343 2.62617L17.4143 6.28947C17.544 6.42227 17.6168 6.60234 17.6168 6.7901C17.6168 6.97785 17.544 7.15792 17.4143 7.29072L17.4126 7.28807Z" fill="black"/>
</svg>
