<svg width="20" height="20" viewBox="0 0 20 20" fill="none" xmlns="http://www.w3.org/2000/svg">
<path d="M19.125 16.25H17.875V7.5C18.0408 7.5 18.1997 7.43415 18.3169 7.31694C18.4342 7.19973 18.5 7.04076 18.5 6.875C18.5 6.70924 18.4342 6.55027 18.3169 6.43306C18.1997 6.31585 18.0408 6.25 17.875 6.25H14.125V3.75C14.2908 3.75 14.4497 3.68415 14.5669 3.56694C14.6842 3.44973 14.75 3.29076 14.75 3.125C14.75 2.95924 14.6842 2.80027 14.5669 2.68306C14.4497 2.56585 14.2908 2.5 14.125 2.5H2.875C2.70924 2.5 2.55027 2.56585 2.43306 2.68306C2.31585 2.80027 2.25 2.95924 2.25 3.125C2.25 3.29076 2.31585 3.44973 2.43306 3.56694C2.55027 3.68415 2.70924 3.75 2.875 3.75V16.25H1.625C1.45924 16.25 1.30027 16.3158 1.18306 16.4331C1.06585 16.5503 1 16.7092 1 16.875C1 17.0408 1.06585 17.1997 1.18306 17.3169C1.30027 17.4342 1.45924 17.5 1.625 17.5H19.125C19.2908 17.5 19.4497 17.4342 19.5669 17.3169C19.6842 17.1997 19.75 17.0408 19.75 16.875C19.75 16.7092 19.6842 16.5503 19.5669 16.4331C19.4497 16.3158 19.2908 16.25 19.125 16.25ZM16.625 7.5V16.25H14.125V7.5H16.625ZM4.125 3.75H12.875V16.25H11V12.5C11 12.3342 10.9342 12.1753 10.8169 12.0581C10.6997 11.9408 10.5408 11.875 10.375 11.875H6.625C6.45924 11.875 6.30027 11.9408 6.18306 12.0581C6.06585 12.1753 6 12.3342 6 12.5V16.25H4.125V3.75ZM9.75 16.25H7.25V13.125H9.75V16.25ZM5.375 6.25C5.375 6.08424 5.44085 5.92527 5.55806 5.80806C5.67527 5.69085 5.83424 5.625 6 5.625H7.25C7.41576 5.625 7.57473 5.69085 7.69194 5.80806C7.80915 5.92527 7.875 6.08424 7.875 6.25C7.875 6.41576 7.80915 6.57473 7.69194 6.69194C7.57473 6.80915 7.41576 6.875 7.25 6.875H6C5.83424 6.875 5.67527 6.80915 5.55806 6.69194C5.44085 6.57473 5.375 6.41576 5.375 6.25ZM9.125 6.25C9.125 6.08424 9.19085 5.92527 9.30806 5.80806C9.42527 5.69085 9.58424 5.625 9.75 5.625H11C11.1658 5.625 11.3247 5.69085 11.4419 5.80806C11.5592 5.92527 11.625 6.08424 11.625 6.25C11.625 6.41576 11.5592 6.57473 11.4419 6.69194C11.3247 6.80915 11.1658 6.875 11 6.875H9.75C9.58424 6.875 9.42527 6.80915 9.30806 6.69194C9.19085 6.57473 9.125 6.41576 9.125 6.25ZM5.375 9.375C5.375 9.20924 5.44085 9.05027 5.55806 8.93306C5.67527 8.81585 5.83424 8.75 6 8.75H7.25C7.41576 8.75 7.57473 8.81585 7.69194 8.93306C7.80915 9.05027 7.875 9.20924 7.875 9.375C7.875 9.54076 7.80915 9.69973 7.69194 9.81694C7.57473 9.93415 7.41576 10 7.25 10H6C5.83424 10 5.67527 9.93415 5.55806 9.81694C5.44085 9.69973 5.375 9.54076 5.375 9.375ZM9.125 9.375C9.125 9.20924 9.19085 9.05027 9.30806 8.93306C9.42527 8.81585 9.58424 8.75 9.75 8.75H11C11.1658 8.75 11.3247 8.81585 11.4419 8.93306C11.5592 9.05027 11.625 9.20924 11.625 9.375C11.625 9.54076 11.5592 9.69973 11.4419 9.81694C11.3247 9.93415 11.1658 10 11 10H9.75C9.58424 10 9.42527 9.93415 9.30806 9.81694C9.19085 9.69973 9.125 9.54076 9.125 9.375Z" fill="black"/>
</svg>
