<svg width="20" height="20" viewBox="0 0 20 20" fill="none" xmlns="http://www.w3.org/2000/svg">
<path d="M10 6.66675C14.1421 6.66675 17.5 5.54746 17.5 4.16675C17.5 2.78604 14.1421 1.66675 10 1.66675C5.85786 1.66675 2.5 2.78604 2.5 4.16675C2.5 5.54746 5.85786 6.66675 10 6.66675Z" stroke="#2563EB" stroke-width="1.5" stroke-linecap="round" stroke-linejoin="round"/>
<path d="M2.5 4.16675V15.8334C2.5 16.4965 3.29018 17.1323 4.6967 17.6012C6.10322 18.07 8.01088 18.3334 10 18.3334C11.9891 18.3334 13.8968 18.07 15.3033 17.6012C16.7098 17.1323 17.5 16.4965 17.5 15.8334V4.16675" stroke="#2563EB" stroke-width="1.5" stroke-linecap="round" stroke-linejoin="round"/>
<path d="M2.5 10C2.5 10.663 3.29018 11.2989 4.6967 11.7678C6.10322 12.2366 8.01088 12.5 10 12.5C11.9891 12.5 13.8968 12.2366 15.3033 11.7678C16.7098 11.2989 17.5 10.663 17.5 10" stroke="#2563EB" stroke-width="1.5" stroke-linecap="round" stroke-linejoin="round"/>
</svg>
