<svg width="62" height="55" viewBox="0 0 62 55" fill="none" xmlns="http://www.w3.org/2000/svg">
<path d="M37.3701 8.45239C49.1537 10.1654 58.2044 20.3099 58.2044 32.5684C58.2044 35.4407 57.7075 38.197 56.7949 40.7559" stroke="white" stroke-width="1.27788" stroke-miterlimit="10" stroke-linecap="round" stroke-linejoin="round"/>
<path d="M10.1695 38.4183C9.70773 36.5443 9.46289 34.5849 9.46289 32.5685C9.46289 24.8543 13.047 17.9773 18.6409 13.5117" stroke="white" stroke-width="1.27788" stroke-miterlimit="10" stroke-linecap="round" stroke-linejoin="round"/>
<path d="M10.4476 41.2717H1" stroke="white" stroke-width="1.27788" stroke-miterlimit="10" stroke-linecap="round" stroke-linejoin="round"/>
<path d="M25.3341 45.3281V35.1516L28.5752 32.5685L31.8783 32.1937L27.4471 30.6704L23.4303 32.5685L16.7422 5.35626L35.3379 1L40.9592 25.2487H38.2715L35.2997 28.6861L40.5169 27.6295L44.2476 30.1238V46.7435" stroke="white" stroke-width="1.27788" stroke-miterlimit="10" stroke-linecap="round" stroke-linejoin="round"/>
<path d="M19.7539 16.892L25.4708 15.5154" stroke="white" stroke-width="1.27788" stroke-miterlimit="10" stroke-linecap="round" stroke-linejoin="round"/>
<path d="M18.9492 13.341L24.6662 11.9644" stroke="white" stroke-width="1.27788" stroke-miterlimit="10" stroke-linecap="round" stroke-linejoin="round"/>
<path d="M18.334 9.50556L24.0509 8.12891" stroke="white" stroke-width="1.27788" stroke-miterlimit="10" stroke-linecap="round" stroke-linejoin="round"/>
<path d="M20.5723 20.3995L26.2893 19.0229" stroke="white" stroke-width="1.27788" stroke-miterlimit="10" stroke-linecap="round" stroke-linejoin="round"/>
<path d="M21.3906 23.9069L27.1076 22.5303" stroke="white" stroke-width="1.27788" stroke-miterlimit="10" stroke-linecap="round" stroke-linejoin="round"/>
<path d="M22.208 27.4144L27.9251 26.0378" stroke="white" stroke-width="1.27788" stroke-miterlimit="10" stroke-linecap="round" stroke-linejoin="round"/>
<path d="M25.334 38.1958H31.2711" stroke="white" stroke-width="1.27788" stroke-miterlimit="10" stroke-linecap="round" stroke-linejoin="round"/>
<path d="M25.334 41.762H31.2711" stroke="white" stroke-width="1.27788" stroke-miterlimit="10" stroke-linecap="round" stroke-linejoin="round"/>
<path d="M25.334 45.3281H31.2711" stroke="white" stroke-width="1.27788" stroke-miterlimit="10" stroke-linecap="round" stroke-linejoin="round"/>
<path d="M17.7072 38.1958L19.4566 36.9722L21.2004 36.8225L21.661 33.6601L18.85 33.3157L16.499 35.4205L17.7072 38.1958Z" stroke="white" stroke-width="1.27788" stroke-miterlimit="10" stroke-linecap="round" stroke-linejoin="round"/>
<path d="M45.7451 35.7603L46.8283 37.7013L48.6223 37.4783L50.7275 35.8097L49.784 33.4731L46.9947 33.3157L45.7451 35.7603Z" stroke="white" stroke-width="1.27788" stroke-miterlimit="10" stroke-linecap="round" stroke-linejoin="round"/>
<path d="M38.2718 25.2487L34.7249 23.1254V19.815L31.2715 18.4424" stroke="white" stroke-width="1.27788" stroke-miterlimit="10" stroke-linecap="round" stroke-linejoin="round"/>
<path d="M19.2451 44.1997C19.6351 43.6608 20.2001 43.2394 20.8886 43.0291C22.5914 42.5135 24.4179 43.4819 24.9645 45.1961C25.3518 46.4099 24.9892 47.6729 24.1414 48.4915" stroke="white" stroke-width="1.27788" stroke-miterlimit="10" stroke-linecap="round" stroke-linejoin="round"/>
<path d="M25.748 51.6294C25.8455 50.7659 26.2115 49.9332 26.8472 49.2594C28.4263 47.5921 31.08 47.542 32.7719 49.1471C33.4264 49.7669 33.8441 50.5476 34.0144 51.3629" stroke="white" stroke-width="1.27788" stroke-miterlimit="10" stroke-linecap="round" stroke-linejoin="round"/>
<path d="M16.1639 44.0809C16.1619 44.0315 16.1592 43.9848 16.1592 43.9353C16.1592 42.7145 17.1499 41.741 18.3717 41.7623C19.2385 41.7763 19.9884 42.2845 20.3503 43.0145" stroke="white" stroke-width="1.27788" stroke-miterlimit="10" stroke-linecap="round" stroke-linejoin="round"/>
<path d="M10.113 47.079C10.1023 46.5113 10.2206 45.9391 10.4816 45.4C11.3765 43.5429 13.6203 42.7916 15.4895 43.7205C16.6034 44.2722 17.3352 45.2959 17.5536 46.4306" stroke="white" stroke-width="1.27788" stroke-miterlimit="10" stroke-linecap="round" stroke-linejoin="round"/>
<path d="M53.5593 47.4726C53.5486 46.905 53.6668 46.3327 53.9279 45.7936C54.8228 43.9365 57.0666 43.1852 58.9358 44.114C60.0496 44.6657 60.7815 45.6894 60.9999 46.8241" stroke="white" stroke-width="1.27788" stroke-miterlimit="10" stroke-linecap="round" stroke-linejoin="round"/>
<path d="M31.8789 48.4447C31.9864 48.0014 32.2314 47.5921 32.6108 47.2782C33.5467 46.5089 34.9411 46.6559 35.7251 47.6068C36.2827 48.2771 36.3835 49.1747 36.0603 49.9112" stroke="white" stroke-width="1.27788" stroke-miterlimit="10" stroke-linecap="round" stroke-linejoin="round"/>
<path d="M22.0379 51.8974C21.7979 51.5028 21.675 51.0346 21.7157 50.5431C21.8212 49.3277 22.8917 48.4435 24.1101 48.5651C24.9722 48.6519 25.6751 49.2235 25.9753 49.9828" stroke="white" stroke-width="1.27788" stroke-miterlimit="10" stroke-linecap="round" stroke-linejoin="round"/>
<path d="M46.8499 48.3936C46.4598 47.8547 45.8949 47.4333 45.2064 47.223C43.5036 46.7074 41.6771 47.6758 41.1305 49.39C40.7432 50.6038 41.1058 51.8667 41.9536 52.6854" stroke="white" stroke-width="1.27788" stroke-miterlimit="10" stroke-linecap="round" stroke-linejoin="round"/>
<path d="M49.9316 48.2748C49.9335 48.2253 49.9363 48.1786 49.9363 48.1292C49.9363 46.9085 48.9456 45.9348 47.7239 45.9562C46.8571 45.9702 46.1071 46.4784 45.7451 47.2083" stroke="white" stroke-width="1.27788" stroke-miterlimit="10" stroke-linecap="round" stroke-linejoin="round"/>
<path d="M55.9816 51.2731C55.9922 50.7054 55.874 50.1332 55.613 49.5941C54.7181 47.737 52.4743 46.9857 50.6051 47.9146C49.4912 48.4662 48.7594 49.4899 48.541 50.6247" stroke="white" stroke-width="1.27788" stroke-miterlimit="10" stroke-linecap="round" stroke-linejoin="round"/>
<path d="M36.4452 53.9974C36.317 53.333 35.9834 52.7033 35.4528 52.2064C34.1376 50.9789 32.0988 51.0538 30.8994 52.3727" stroke="white" stroke-width="1.27788" stroke-miterlimit="10" stroke-linecap="round" stroke-linejoin="round"/>
<path d="M35.2832 46.5607C35.4872 45.9278 35.8945 45.3523 36.484 44.9391C37.9447 43.922 39.9805 44.278 41.0306 45.739C41.7742 46.7736 41.8206 48.0865 41.267 49.1272" stroke="white" stroke-width="1.27788" stroke-miterlimit="10" stroke-linecap="round" stroke-linejoin="round"/>
<path d="M46.9941 33.3156V30.1238" stroke="white" stroke-width="1.27788" stroke-miterlimit="10" stroke-linecap="round" stroke-linejoin="round"/>
<path d="M48.832 31.324V25.2488" stroke="white" stroke-width="1.27788" stroke-miterlimit="10" stroke-linecap="round" stroke-linejoin="round"/>
<path d="M16.1592 32.5685V28.7725" stroke="white" stroke-width="1.27788" stroke-miterlimit="10" stroke-linecap="round" stroke-linejoin="round"/>
<path d="M18.2549 30.6703V24.405" stroke="white" stroke-width="1.27788" stroke-miterlimit="10" stroke-linecap="round" stroke-linejoin="round"/>
</svg>
