<svg width="20" height="20" viewBox="0 0 20 20" fill="none" xmlns="http://www.w3.org/2000/svg">
<g clip-path="url(#clip0_46_1185)">
<path d="M14.1512 4.24069L10.6512 1.24067C10.4638 1.08035 10.2318 1 10.0001 1C9.76845 1 9.53645 1.08035 9.34911 1.24067L5.84908 4.24069C5.53142 4.51303 5.41709 4.95437 5.56209 5.34703C5.70744 5.73937 6.08174 6.00004 6.5001 6.00004V9.00006C6.5001 9.55241 6.94776 10.0001 7.50011 10.0001H12.5002C13.0525 10.0001 13.5002 9.55241 13.5002 9.00006V6.00004C13.9185 6.00004 14.2928 5.73937 14.4382 5.34703C14.5832 4.95472 14.4688 4.51303 14.1512 4.24069ZM12.5002 5.00003V9.00006H7.50011V5.00003H6.5001L10.0001 2.00001L13.5002 5.00003H12.5002Z" fill="black"/>
<path d="M11 5H9C8.72367 5 8.5 5.22367 8.5 5.5V7.50002C8.5 7.77635 8.72367 8.00002 9 8.00002H11C11.2763 8.00002 11.5 7.77635 11.5 7.50002V5.5C11.5 5.22367 11.2764 5 11 5ZM10.5 7.00002H9.50001V6.00001H10.5V7.00002Z" fill="black"/>
<path d="M8.65098 13.2407L5.15095 10.2407C4.96361 10.0803 4.73161 10 4.49993 10C4.26825 10 4.03626 10.0804 3.84926 10.2407L0.349236 13.2407C0.0315774 13.513 -0.0831109 13.9544 0.0622418 14.347C0.207243 14.7394 0.581582 15 0.999905 15V18.0001C0.999905 18.5524 1.44757 19.0001 1.99991 19.0001H6.99995C7.5523 19.0001 7.99996 18.5524 7.99996 18.0001V15C8.41828 15 8.79262 14.7394 8.93797 14.347C9.08298 13.9547 8.96864 13.513 8.65098 13.2407ZM6.99995 14V18.0001H1.99991V14H0.999905L4.49993 11L7.99996 14H6.99995Z" fill="black"/>
<path d="M5.50002 14H3.5C3.22367 14 3 14.2237 3 14.5V16.5C3 16.7763 3.22367 17 3.5 17H5.50002C5.77635 17 6.00002 16.7763 6.00002 16.5V14.5C6.00002 14.2237 5.77639 14 5.50002 14ZM5.00002 16H4.00001V15H5.00002V16Z" fill="black"/>
<path d="M19.651 13.2407L16.151 10.2407C15.964 10.0803 15.732 10 15.5003 10C15.2686 10 15.0366 10.0804 14.8493 10.2407L11.3492 13.2407C11.0316 13.513 10.9169 13.9544 11.0622 14.347C11.2076 14.7394 11.5819 15 12.0003 15V18.0001C12.0003 18.5524 12.4479 19.0001 13.0003 19.0001H18.0003C18.5527 19.0001 19.0003 18.5524 19.0003 18.0001V15C19.4186 15 19.793 14.7394 19.938 14.347C20.0833 13.9544 19.969 13.513 19.651 13.2407ZM18.0003 14V18.0001H13.0002V14H12.0002L15.5002 11L19.0003 14H18.0003Z" fill="black"/>
<path d="M16.5 14H14.5C14.2237 14 14 14.2237 14 14.5V16.5C14 16.7763 14.2237 17 14.5 17H16.5C16.7763 17 17 16.7763 17 16.5V14.5C17 14.2237 16.7764 14 16.5 14ZM16 16H15V15H16V16Z" fill="black"/>
</g>
<defs>
<clipPath id="clip0_46_1185">
<rect width="20" height="20" fill="white"/>
</clipPath>
</defs>
</svg>
