<svg width="63" height="57" viewBox="0 0 63 57" fill="none" xmlns="http://www.w3.org/2000/svg">
<path d="M40.6993 5.4043C51.4739 8.28698 59.4084 18.1178 59.4084 29.8015C59.4084 43.7483 48.1022 55.0545 34.1553 55.0545C26.5413 55.0545 19.7138 51.6847 15.084 46.3551" stroke="#292A61" stroke-width="1.5" stroke-miterlimit="10" stroke-linecap="round" stroke-linejoin="round"/>
<path d="M9.60256 35.7307C9.14475 33.8287 8.90234 31.8433 8.90234 29.8013C8.90234 23.0111 11.5822 16.8469 15.9418 12.3088" stroke="#292A61" stroke-width="1.5" stroke-miterlimit="10" stroke-linecap="round" stroke-linejoin="round"/>
<path d="M11.5889 38.9517H1" stroke="#292A61" stroke-width="1.5" stroke-miterlimit="10" stroke-linecap="round" stroke-linejoin="round"/>
<path d="M12.543 43.9861H3.81543" stroke="#292A61" stroke-width="1.5" stroke-miterlimit="10" stroke-linecap="round" stroke-linejoin="round"/>
<path d="M16.165 38.9517V1H40.6992V14.529L38.2108 15.9698L38.0795 20.0786L30.4399 18.0537L35.9842 21.9121L35.3905 25.7359L38.7344 23.746L40.6992 26.6275V44.0472" stroke="#292A61" stroke-width="1.5" stroke-miterlimit="10" stroke-linecap="round" stroke-linejoin="round"/>
<path d="M46.252 17.8932L48.1749 15.2495H50.8186L50.1773 17.8932L48.5353 19.5756L46.252 17.8932Z" stroke="#292A61" stroke-width="1.5" stroke-miterlimit="10" stroke-linecap="round" stroke-linejoin="round"/>
<path d="M47.4544 28.2498L46.8604 30.935L49.0234 32.4572L51.2664 32.0565L52.9488 29.5734L50.7857 27.5706L47.4544 28.2498Z" stroke="#292A61" stroke-width="1.5" stroke-miterlimit="10" stroke-linecap="round" stroke-linejoin="round"/>
<path d="M43.4077 21.3599L42.5264 22.0407L42.967 23.9233L44.7697 24.4842L45.8109 22.4814L43.4077 21.3599Z" stroke="#292A61" stroke-width="1.5" stroke-miterlimit="10" stroke-linecap="round" stroke-linejoin="round"/>
<path d="M43.8406 40.6563L45.7395 39.4568L47.2724 41.0562V43.5964L43.7432 45.9494L42.2598 45.0224L43.8406 40.6563Z" stroke="#292A61" stroke-width="1.5" stroke-miterlimit="10" stroke-linecap="round" stroke-linejoin="round"/>
<path d="M16.9746 5.75H22.1661" stroke="#292A61" stroke-width="1.5" stroke-miterlimit="10" stroke-linecap="round" stroke-linejoin="round"/>
<path d="M16.9746 10.4998H22.1661" stroke="#292A61" stroke-width="1.5" stroke-miterlimit="10" stroke-linecap="round" stroke-linejoin="round"/>
<path d="M16.9746 15.2495H22.1661" stroke="#292A61" stroke-width="1.5" stroke-miterlimit="10" stroke-linecap="round" stroke-linejoin="round"/>
<path d="M16.9746 19.9995H22.1661" stroke="#292A61" stroke-width="1.5" stroke-miterlimit="10" stroke-linecap="round" stroke-linejoin="round"/>
<path d="M16.9746 24.7493H22.1661" stroke="#292A61" stroke-width="1.5" stroke-miterlimit="10" stroke-linecap="round" stroke-linejoin="round"/>
<path d="M16.9746 29.4988H22.1661" stroke="#292A61" stroke-width="1.5" stroke-miterlimit="10" stroke-linecap="round" stroke-linejoin="round"/>
<path d="M16.9746 34.2488H22.1661" stroke="#292A61" stroke-width="1.5" stroke-miterlimit="10" stroke-linecap="round" stroke-linejoin="round"/>
<path d="M40.6994 44.0474H16.1641" stroke="#292A61" stroke-width="1.5" stroke-miterlimit="10" stroke-linecap="round" stroke-linejoin="round"/>
<path d="M47.3701 10.9698V7.83325" stroke="#292A61" stroke-width="1.5" stroke-miterlimit="10" stroke-linecap="round" stroke-linejoin="round"/>
<path d="M53.2979 13.2484L56.265 11.3696" stroke="#292A61" stroke-width="1.5" stroke-miterlimit="10" stroke-linecap="round" stroke-linejoin="round"/>
<path d="M47.9238 22.9221L51.6536 23.8834" stroke="#292A61" stroke-width="1.5" stroke-miterlimit="10" stroke-linecap="round" stroke-linejoin="round"/>
<path d="M13.1406 56L19.0715 54.8804L18.5985 49.6946L24.6154 48.0472L25.5181 44.1793L28.432 41.6444L24.4251 38.9516L27.3919 34.2488" stroke="#292A61" stroke-width="1.5" stroke-miterlimit="10" stroke-linecap="round" stroke-linejoin="round"/>
<path d="M40.6992 44.0472L43.7429 45.9489L48.3841 42.855L54.8306 45.4332L61.2772 43.8863" stroke="#292A61" stroke-width="1.5" stroke-miterlimit="10" stroke-linecap="round" stroke-linejoin="round"/>
</svg>
