<svg width="30" height="28" viewBox="0 0 30 28" fill="none" xmlns="http://www.w3.org/2000/svg">
<path d="M16.125 12.875V26.375C16.125 26.6734 16.0065 26.9595 15.7955 27.1705C15.5845 27.3815 15.2984 27.5 15 27.5C14.7016 27.5 14.4155 27.3815 14.2045 27.1705C13.9935 26.9595 13.875 26.6734 13.875 26.375V12.875C13.875 12.5766 13.9935 12.2905 14.2045 12.0795C14.4155 11.8685 14.7016 11.75 15 11.75C15.2984 11.75 15.5845 11.8685 15.7955 12.0795C16.0065 12.2905 16.125 12.5766 16.125 12.875ZM25.125 23C24.8266 23 24.5405 23.1185 24.3295 23.3295C24.1185 23.5405 24 23.8266 24 24.125V26.375C24 26.6734 24.1185 26.9595 24.3295 27.1705C24.5405 27.3815 24.8266 27.5 25.125 27.5C25.4234 27.5 25.7095 27.3815 25.9205 27.1705C26.1315 26.9595 26.25 26.6734 26.25 26.375V24.125C26.25 23.8266 26.1315 23.5405 25.9205 23.3295C25.7095 23.1185 25.4234 23 25.125 23ZM28.5 18.5H26.25V1.625C26.25 1.32663 26.1315 1.04048 25.9205 0.829505C25.7095 0.618527 25.4234 0.5 25.125 0.5C24.8266 0.5 24.5405 0.618527 24.3295 0.829505C24.1185 1.04048 24 1.32663 24 1.625V18.5H21.75C21.4516 18.5 21.1655 18.6185 20.9545 18.8295C20.7435 19.0405 20.625 19.3266 20.625 19.625C20.625 19.9234 20.7435 20.2095 20.9545 20.4205C21.1655 20.6315 21.4516 20.75 21.75 20.75H28.5C28.7984 20.75 29.0845 20.6315 29.2955 20.4205C29.5065 20.2095 29.625 19.9234 29.625 19.625C29.625 19.3266 29.5065 19.0405 29.2955 18.8295C29.0845 18.6185 28.7984 18.5 28.5 18.5ZM4.875 18.5C4.57663 18.5 4.29048 18.6185 4.0795 18.8295C3.86853 19.0405 3.75 19.3266 3.75 19.625V26.375C3.75 26.6734 3.86853 26.9595 4.0795 27.1705C4.29048 27.3815 4.57663 27.5 4.875 27.5C5.17337 27.5 5.45952 27.3815 5.6705 27.1705C5.88147 26.9595 6 26.6734 6 26.375V19.625C6 19.3266 5.88147 19.0405 5.6705 18.8295C5.45952 18.6185 5.17337 18.5 4.875 18.5ZM8.25 14H6V1.625C6 1.32663 5.88147 1.04048 5.6705 0.829505C5.45952 0.618527 5.17337 0.5 4.875 0.5C4.57663 0.5 4.29048 0.618527 4.0795 0.829505C3.86853 1.04048 3.75 1.32663 3.75 1.625V14H1.5C1.20163 14 0.915483 14.1185 0.704505 14.3295C0.493526 14.5405 0.375 14.8266 0.375 15.125C0.375 15.4234 0.493526 15.7095 0.704505 15.9205C0.915483 16.1315 1.20163 16.25 1.5 16.25H8.25C8.54837 16.25 8.83452 16.1315 9.0455 15.9205C9.25647 15.7095 9.375 15.4234 9.375 15.125C9.375 14.8266 9.25647 14.5405 9.0455 14.3295C8.83452 14.1185 8.54837 14 8.25 14ZM18.375 7.25H16.125V1.625C16.125 1.32663 16.0065 1.04048 15.7955 0.829505C15.5845 0.618527 15.2984 0.5 15 0.5C14.7016 0.5 14.4155 0.618527 14.2045 0.829505C13.9935 1.04048 13.875 1.32663 13.875 1.625V7.25H11.625C11.3266 7.25 11.0405 7.36853 10.8295 7.5795C10.6185 7.79048 10.5 8.07663 10.5 8.375C10.5 8.67337 10.6185 8.95952 10.8295 9.1705C11.0405 9.38147 11.3266 9.5 11.625 9.5H18.375C18.6734 9.5 18.9595 9.38147 19.1705 9.1705C19.3815 8.95952 19.5 8.67337 19.5 8.375C19.5 8.07663 19.3815 7.79048 19.1705 7.5795C18.9595 7.36853 18.6734 7.25 18.375 7.25Z" fill="#232B48"/>
</svg>
