<svg width="16" height="16" viewBox="0 0 16 16" fill="none" xmlns="http://www.w3.org/2000/svg">
<path d="M10.0003 1.33325H4.00033C3.6467 1.33325 3.30756 1.47373 3.05752 1.72378C2.80747 1.97382 2.66699 2.31296 2.66699 2.66659V13.3333C2.66699 13.6869 2.80747 14.026 3.05752 14.2761C3.30756 14.5261 3.6467 14.6666 4.00033 14.6666H12.0003C12.3539 14.6666 12.6931 14.5261 12.9431 14.2761C13.1932 14.026 13.3337 13.6869 13.3337 13.3333V4.66659L10.0003 1.33325Z" stroke="#1E1E1E" stroke-linecap="round" stroke-linejoin="round"/>
<path d="M9.33301 1.33325V3.99992C9.33301 4.35354 9.47348 4.69268 9.72353 4.94273C9.97358 5.19278 10.3127 5.33325 10.6663 5.33325H13.333" stroke="#1E1E1E" stroke-linecap="round" stroke-linejoin="round"/>
<path d="M6.66634 9.33341C7.40272 9.33341 7.99967 8.73646 7.99967 8.00008C7.99967 7.2637 7.40272 6.66675 6.66634 6.66675C5.92996 6.66675 5.33301 7.2637 5.33301 8.00008C5.33301 8.73646 5.92996 9.33341 6.66634 9.33341Z" stroke="#1E1E1E" stroke-linecap="round" stroke-linejoin="round"/>
<path d="M13.3333 11.3333L12.4693 10.4693C12.168 10.168 11.7594 9.99878 11.3333 9.99878C10.9073 9.99878 10.4986 10.168 10.1973 10.4693L6 14.6666" stroke="#1E1E1E" stroke-linecap="round" stroke-linejoin="round"/>
</svg>
