<svg width="20" height="20" viewBox="0 0 20 20" fill="none" xmlns="http://www.w3.org/2000/svg">
<path d="M17.4667 16.6667H16.4V7.33333C16.5414 7.33333 16.6771 7.2631 16.7771 7.13807C16.8771 7.01305 16.9333 6.84348 16.9333 6.66667C16.9333 6.48986 16.8771 6.32029 16.7771 6.19526C16.6771 6.07024 16.5414 6 16.4 6H13.2V3.33333C13.3414 3.33333 13.4771 3.2631 13.5771 3.13807C13.6771 3.01305 13.7333 2.84348 13.7333 2.66667C13.7333 2.48986 13.6771 2.32029 13.5771 2.19526C13.4771 2.07024 13.3414 2 13.2 2H3.6C3.45855 2 3.3229 2.07024 3.22288 2.19526C3.12286 2.32029 3.06667 2.48986 3.06667 2.66667C3.06667 2.84348 3.12286 3.01305 3.22288 3.13807C3.3229 3.2631 3.45855 3.33333 3.6 3.33333V16.6667H2.53333C2.39188 16.6667 2.25623 16.7369 2.15621 16.8619C2.05619 16.987 2 17.1565 2 17.3333C2 17.5101 2.05619 17.6797 2.15621 17.8047C2.25623 17.9298 2.39188 18 2.53333 18H17.4667C17.6081 18 17.7438 17.9298 17.8438 17.8047C17.9438 17.6797 18 17.5101 18 17.3333C18 17.1565 17.9438 16.987 17.8438 16.8619C17.7438 16.7369 17.6081 16.6667 17.4667 16.6667ZM15.3333 7.33333V16.6667H13.2V7.33333H15.3333ZM4.66667 3.33333H12.1333V16.6667H10.5333V12.6667C10.5333 12.4899 10.4771 12.3203 10.3771 12.1953C10.2771 12.0702 10.1414 12 10 12H6.8C6.65855 12 6.5229 12.0702 6.42288 12.1953C6.32286 12.3203 6.26667 12.4899 6.26667 12.6667V16.6667H4.66667V3.33333ZM9.46667 16.6667H7.33333V13.3333H9.46667V16.6667ZM5.73333 6C5.73333 5.82319 5.78952 5.65362 5.88954 5.5286C5.98956 5.40357 6.12522 5.33333 6.26667 5.33333H7.33333C7.47478 5.33333 7.61044 5.40357 7.71046 5.5286C7.81048 5.65362 7.86667 5.82319 7.86667 6C7.86667 6.17681 7.81048 6.34638 7.71046 6.4714C7.61044 6.59643 7.47478 6.66667 7.33333 6.66667H6.26667C6.12522 6.66667 5.98956 6.59643 5.88954 6.4714C5.78952 6.34638 5.73333 6.17681 5.73333 6ZM8.93333 6C8.93333 5.82319 8.98952 5.65362 9.08954 5.5286C9.18956 5.40357 9.32522 5.33333 9.46667 5.33333H10.5333C10.6748 5.33333 10.8104 5.40357 10.9105 5.5286C11.0105 5.65362 11.0667 5.82319 11.0667 6C11.0667 6.17681 11.0105 6.34638 10.9105 6.4714C10.8104 6.59643 10.6748 6.66667 10.5333 6.66667H9.46667C9.32522 6.66667 9.18956 6.59643 9.08954 6.4714C8.98952 6.34638 8.93333 6.17681 8.93333 6ZM5.73333 9.33333C5.73333 9.15652 5.78952 8.98695 5.88954 8.86193C5.98956 8.73691 6.12522 8.66667 6.26667 8.66667H7.33333C7.47478 8.66667 7.61044 8.73691 7.71046 8.86193C7.81048 8.98695 7.86667 9.15652 7.86667 9.33333C7.86667 9.51014 7.81048 9.67971 7.71046 9.80474C7.61044 9.92976 7.47478 10 7.33333 10H6.26667C6.12522 10 5.98956 9.92976 5.88954 9.80474C5.78952 9.67971 5.73333 9.51014 5.73333 9.33333ZM8.93333 9.33333C8.93333 9.15652 8.98952 8.98695 9.08954 8.86193C9.18956 8.73691 9.32522 8.66667 9.46667 8.66667H10.5333C10.6748 8.66667 10.8104 8.73691 10.9105 8.86193C11.0105 8.98695 11.0667 9.15652 11.0667 9.33333C11.0667 9.51014 11.0105 9.67971 10.9105 9.80474C10.8104 9.92976 10.6748 10 10.5333 10H9.46667C9.32522 10 9.18956 9.92976 9.08954 9.80474C8.98952 9.67971 8.93333 9.51014 8.93333 9.33333Z" fill="#1E1E1E"/>
</svg>
