<svg width="75" height="57" viewBox="0 0 75 57" fill="none" xmlns="http://www.w3.org/2000/svg">
<path d="M18.2802 38.3491H1" stroke="#292A61" stroke-width="1.5" stroke-miterlimit="10" stroke-linecap="round" stroke-linejoin="round"/>
<path d="M21.3417 43.824H4.06152" stroke="#292A61" stroke-width="1.5" stroke-miterlimit="10" stroke-linecap="round" stroke-linejoin="round"/>
<path d="M59.6028 27.1645L42.4531 7.72852L19.7168 19.2046" stroke="#292A61" stroke-width="1.5" stroke-miterlimit="10" stroke-linecap="round" stroke-linejoin="round"/>
<path d="M43.7478 40.2428L28.6475 37.4043" stroke="#292A61" stroke-width="1.5" stroke-miterlimit="10" stroke-linecap="round" stroke-linejoin="round"/>
<path d="M22.0498 30.9095L24.5821 17.4402L56.1642 23.3776L53.9798 34.9974" stroke="#292A61" stroke-width="1.5" stroke-miterlimit="10" stroke-linecap="round" stroke-linejoin="round"/>
<path d="M40.0125 39.5411L33.1729 38.2554L34.881 29.1685L41.7207 30.4541L40.0125 39.5411Z" stroke="#292A61" stroke-width="1.5" stroke-miterlimit="10" stroke-linecap="round" stroke-linejoin="round"/>
<path d="M12.8271 34.9305C13.0785 34.7787 13.3322 34.6305 13.5878 34.4862C16.6201 32.7744 20.0353 31.5928 23.5256 31.3498C25.5639 31.2079 28.3395 31.4339 29.7579 33.1346C29.9952 33.4191 30.1527 33.7921 30.0963 34.1585C30.02 34.6589 29.5868 35.0125 29.2155 35.3566C27.3383 37.0952 26.0929 40.1147 27.346 42.5522C28.22 44.2518 30.1658 45.196 32.0714 45.3389C34.485 45.5196 37.0725 44.7434 39.1734 43.5892C40.5822 42.8152 41.8685 41.8536 43.0919 40.8079" stroke="#292A61" stroke-width="1.5" stroke-miterlimit="10" stroke-linecap="round" stroke-linejoin="round"/>
<path d="M7.64399 33.1176C7.64399 33.9307 6.98504 34.5893 6.17224 34.5893C5.35914 34.5893 4.7002 33.9304 4.7002 33.1176C4.7002 32.3045 5.35914 31.6455 6.17224 31.6455C6.98504 31.6455 7.64399 32.3045 7.64399 33.1176Z" fill="#292A61"/>
<path d="M32.4773 38.5826C32.4773 39.3957 31.8183 40.0547 31.0052 40.0547C30.1924 40.0547 29.5332 39.3957 29.5332 38.5826C29.5332 37.7695 30.1921 37.1106 31.0052 37.1106C31.8183 37.1106 32.4773 37.7695 32.4773 38.5826Z" fill="#292A61"/>
<path d="M50.3416 35.3256C50.3416 36.1384 49.6826 36.7976 48.8695 36.7976C48.0564 36.7976 47.3975 36.1387 47.3975 35.3256C47.3975 34.5125 48.0564 33.8535 48.8695 33.8535C49.6823 33.8535 50.3416 34.5125 50.3416 35.3256Z" fill="#292A61"/>
<path d="M27.4366 42.8565C27.4366 43.2629 27.1071 43.5924 26.7007 43.5924C26.2943 43.5924 25.9648 43.2629 25.9648 42.8565C25.9648 42.4501 26.2943 42.1206 26.7007 42.1206C27.1071 42.1206 27.4366 42.4501 27.4366 42.8565Z" fill="#292A61"/>
<path d="M14.8487 28.5066C14.8487 28.913 14.5192 29.2425 14.1128 29.2425C13.7064 29.2425 13.377 28.913 13.377 28.5066C13.377 28.1002 13.7064 27.7708 14.1128 27.7708C14.5192 27.7708 14.8487 28.1002 14.8487 28.5066Z" fill="#292A61"/>
<path d="M32.9561 32.3816C32.9561 32.788 32.6266 33.1175 32.2202 33.1175C31.8138 33.1175 31.4844 32.788 31.4844 32.3816C31.4844 31.9752 31.8138 31.6458 32.2202 31.6458C32.6266 31.6458 32.9561 31.9752 32.9561 32.3816Z" fill="#292A61"/>
<path d="M60.2012 31.6458C60.2012 32.0522 59.8718 32.3817 59.4654 32.3817C59.059 32.3817 58.7295 32.0522 58.7295 31.6458C58.7295 31.2394 59.059 30.9099 59.4654 30.9099C59.8718 30.9099 60.2012 31.2394 60.2012 31.6458Z" fill="#292A61"/>
<path d="M47.3975 41.3848C47.3975 41.7912 47.0681 42.1207 46.6617 42.1207C46.2553 42.1207 45.9258 41.7912 45.9258 41.3848C45.9258 40.9784 46.2553 40.6489 46.6617 40.6489C47.0681 40.6489 47.3975 40.9784 47.3975 41.3848Z" fill="#292A61"/>
<path d="M43.0918 40.8075C44.3029 39.7225 45.6161 38.7558 47.0288 37.9585C49.1201 36.7778 51.4759 35.9629 53.8833 35.7953C55.2889 35.6975 57.2037 35.8535 58.182 37.0265C58.3457 37.2227 58.4542 37.48 58.4154 37.7325C58.3627 38.0778 58.0639 38.3214 57.8078 38.559C56.5131 39.7583 55.6541 41.841 56.5185 43.522C57.1211 44.6944 58.4634 45.3456 59.7778 45.444C61.4427 45.5686 63.2269 45.0334 64.676 44.2373C65.6478 43.7033 67.5682 42.2861 68.4121 41.5649C69.6232 40.4798 71.9674 38.7564 73.3804 37.9591" stroke="#292A61" stroke-width="1.5" stroke-miterlimit="10" stroke-linecap="round" stroke-linejoin="round"/>
<path d="M71.3562 34.5897C71.3562 35.4028 70.6973 36.0617 69.8842 36.0617C69.0711 36.0617 68.4121 35.4028 68.4121 34.5897C68.4121 33.7766 69.0711 33.1179 69.8842 33.1179C70.697 33.1179 71.3562 33.7769 71.3562 34.5897Z" fill="#292A61"/>
<path d="M60.2012 41.6082C60.2012 42.0146 59.8718 42.3441 59.4654 42.3441C59.059 42.3441 58.7295 42.0146 58.7295 41.6082C58.7295 41.2018 59.059 40.8723 59.4654 40.8723C59.8718 40.8723 60.2012 41.2018 60.2012 41.6082Z" fill="#292A61"/>
<path d="M69.1485 45.4617C69.1485 45.8681 68.819 46.1976 68.4126 46.1976C68.0062 46.1976 67.6768 45.8681 67.6768 45.4617C67.6768 45.0553 68.0062 44.7258 68.4126 44.7258C68.819 44.7258 69.1485 45.0553 69.1485 45.4617Z" fill="#292A61"/>
<path d="M56.5716 48.8044C51.6814 53.2736 45.1716 56 38.0248 56C29.9928 56 22.765 52.5565 17.7373 47.0652" stroke="#292A61" stroke-width="1.5" stroke-miterlimit="10" stroke-linecap="round" stroke-linejoin="round"/>
<path d="M10.8373 32.656C10.6318 31.3005 10.5254 29.9129 10.5254 28.5001C10.5254 13.3125 22.8376 1 38.0255 1C53.2135 1 65.5257 13.3122 65.5257 28.5001C65.5257 33.2464 64.3232 37.7117 62.2065 41.6081" stroke="#292A61" stroke-width="1.5" stroke-miterlimit="10" stroke-linecap="round" stroke-linejoin="round"/>
</svg>
