<svg width="20" height="20" viewBox="0 0 20 20" fill="none" xmlns="http://www.w3.org/2000/svg">
<path d="M12.917 6.24992L14.8337 8.16659C14.9894 8.31927 15.1989 8.4048 15.417 8.4048C15.6351 8.4048 15.8446 8.31927 16.0003 8.16659L17.7503 6.41659C17.903 6.26081 17.9885 6.05138 17.9885 5.83325C17.9885 5.61512 17.903 5.40569 17.7503 5.24992L15.8337 3.33325" stroke="#1E1E1E" stroke-width="1.5" stroke-linecap="round" stroke-linejoin="round"/>
<path d="M17.5 1.66675L9.5 9.66675" stroke="#1E1E1E" stroke-width="1.5" stroke-linecap="round" stroke-linejoin="round"/>
<path d="M6.25033 17.4999C8.78163 17.4999 10.8337 15.4479 10.8337 12.9166C10.8337 10.3853 8.78163 8.33325 6.25033 8.33325C3.71902 8.33325 1.66699 10.3853 1.66699 12.9166C1.66699 15.4479 3.71902 17.4999 6.25033 17.4999Z" stroke="#1E1E1E" stroke-width="1.5" stroke-linecap="round" stroke-linejoin="round"/>
</svg>
