<svg width="20" height="20" viewBox="0 0 20 20" fill="none" xmlns="http://www.w3.org/2000/svg">
<path d="M16.7683 3.23132C16.3382 2.8 15.7654 2.54054 15.1575 2.50168C14.5496 2.46282 13.9485 2.64722 13.4669 3.02026C12.9854 3.3933 12.6566 3.92931 12.5424 4.52762C12.4281 5.12592 12.5362 5.74536 12.8464 6.2696L6.26905 12.8469C5.79128 12.5661 5.23384 12.4516 4.68404 12.5214C4.13425 12.5913 3.62314 12.8415 3.23077 13.2329C2.90025 13.5636 2.66909 13.9803 2.56355 14.4358C2.45801 14.8913 2.48231 15.3673 2.6337 15.8096C2.78509 16.252 3.05749 16.643 3.41997 16.9383C3.78245 17.2337 4.22048 17.4214 4.68432 17.4803C5.14815 17.5391 5.61919 17.4667 6.04394 17.2713C6.46869 17.0759 6.83013 16.7653 7.08721 16.3747C7.34429 15.9842 7.48669 15.5294 7.49826 15.062C7.50982 14.5946 7.39009 14.1333 7.15264 13.7305L13.73 7.15319C14.2542 7.46336 14.8737 7.57146 15.472 7.4572C16.0703 7.34294 16.6063 7.01417 16.9793 6.53264C17.3524 6.05111 17.5368 5.44996 17.4979 4.84208C17.459 4.2342 17.1996 3.66142 16.7683 3.23132ZM5.88311 15.8876C5.64856 16.1221 5.33044 16.2539 4.99873 16.2539C4.66703 16.2539 4.34891 16.1221 4.11436 15.8876C3.87981 15.653 3.74804 15.3349 3.74804 15.0032C3.74804 14.6715 3.87981 14.3534 4.11436 14.1188C4.23044 14.0027 4.36825 13.9106 4.51992 13.8478C4.6716 13.7849 4.83417 13.7526 4.99834 13.7526C5.16252 13.7526 5.32509 13.7849 5.47676 13.8478C5.62844 13.9106 5.76625 14.0027 5.88233 14.1188C6.11644 14.3531 6.24801 14.6707 6.24816 15.0019C6.2483 15.333 6.11701 15.6508 5.88311 15.8852V15.8876ZM15.8831 5.88757C15.7083 6.06235 15.4856 6.18138 15.2431 6.22958C15.0006 6.27779 14.7493 6.25302 14.5209 6.1584C14.2925 6.06379 14.0973 5.90357 13.96 5.69802C13.8226 5.49246 13.7493 5.2508 13.7493 5.00358C13.7493 4.75637 13.8226 4.5147 13.96 4.30915C14.0973 4.10359 14.2925 3.94338 14.5209 3.84876C14.7493 3.75414 15.0006 3.72937 15.2431 3.77758C15.4856 3.82579 15.7083 3.94481 15.8831 4.1196C16.1164 4.35363 16.2475 4.67049 16.2478 5.00092C16.2481 5.33134 16.1175 5.64844 15.8847 5.88288L15.8831 5.88757Z" fill="black"/>
</svg>
