<svg width="20" height="20" viewBox="0 0 20 20" fill="none" xmlns="http://www.w3.org/2000/svg">
<path d="M18.7504 6.89303C18.7191 7.98104 18.2717 9.0156 17.5004 9.78365L14.7856 12.5001C14.3902 12.8976 13.9199 13.2128 13.4018 13.4274C12.8838 13.6419 12.3283 13.7516 11.7676 13.7501H11.7637C11.1934 13.7497 10.629 13.635 10.1038 13.4128C9.57859 13.1906 9.10323 12.8654 8.70581 12.4564C8.30839 12.0474 7.99697 11.5629 7.78994 11.0315C7.58291 10.5001 7.48447 9.93262 7.50045 9.36256C7.50511 9.1968 7.57543 9.03968 7.69593 8.92576C7.81644 8.81185 7.97726 8.75047 8.14302 8.75514C8.30878 8.7598 8.4659 8.83012 8.57982 8.95062C8.69373 9.07113 8.75511 9.23195 8.75044 9.39771C8.73906 9.80078 8.80859 10.202 8.95492 10.5778C9.10125 10.9535 9.32141 11.2961 9.60239 11.5853C9.88337 11.8745 10.2195 12.1045 10.5908 12.2616C10.9622 12.4187 11.3613 12.4998 11.7645 12.5001C12.1609 12.5011 12.5535 12.4235 12.9198 12.2718C13.286 12.1202 13.6185 11.8974 13.8981 11.6165L16.6129 8.90162C17.1731 8.33444 17.4861 7.56869 17.4836 6.77155C17.4811 5.97441 17.1633 5.21063 16.5996 4.64696C16.036 4.0833 15.2722 3.76553 14.475 3.76304C13.6779 3.76054 12.9122 4.07352 12.345 4.63365L11.4856 5.49303C11.3674 5.60529 11.2101 5.66695 11.0471 5.66486C10.8841 5.66278 10.7284 5.59711 10.6132 5.48186C10.4979 5.36661 10.4323 5.21089 10.4302 5.04792C10.4281 4.88494 10.4897 4.7276 10.602 4.60943L11.4614 3.75006C11.8579 3.35344 12.3286 3.03882 12.8467 2.82416C13.3648 2.60951 13.9201 2.49902 14.4809 2.49902C15.0417 2.49902 15.597 2.60951 16.1151 2.82416C16.6332 3.03882 17.104 3.35344 17.5004 3.75006C17.9111 4.16174 18.2337 4.65269 18.4486 5.19302C18.6635 5.73334 18.7662 6.31175 18.7504 6.89303ZM8.51607 14.5047L7.6567 15.3641C7.3764 15.6463 7.04281 15.8699 6.67533 16.022C6.30784 16.1741 5.91378 16.2516 5.51607 16.2501C4.91943 16.2496 4.33632 16.0723 3.84042 15.7405C3.34451 15.4088 2.95807 14.9375 2.72991 14.3862C2.50175 13.8349 2.44212 13.2283 2.55855 12.6432C2.67497 12.058 2.96224 11.5205 3.38404 11.0985L6.0942 8.38365C6.52106 7.95453 7.06709 7.66368 7.66138 7.54887C8.25566 7.43407 8.87074 7.5006 9.42672 7.73984C9.9827 7.97909 10.4539 8.37998 10.7791 8.89045C11.1043 9.40093 11.2686 9.9974 11.2504 10.6024C11.2458 10.7682 11.3072 10.929 11.4211 11.0495C11.535 11.17 11.6921 11.2403 11.8579 11.245C12.0236 11.2496 12.1845 11.1883 12.305 11.0743C12.4255 10.9604 12.4958 10.8033 12.5004 10.6376C12.5155 10.0572 12.4124 9.47982 12.1975 8.94049C11.9826 8.40116 11.6604 7.9111 11.2504 7.50006C10.4498 6.69977 9.36411 6.2502 8.23209 6.2502C7.10006 6.2502 6.01437 6.69977 5.21373 7.50006L2.50045 10.2149C1.90375 10.8114 1.49726 11.5713 1.33233 12.3987C1.1674 13.2261 1.25145 14.0838 1.57384 14.8635C1.89624 15.6431 2.44252 16.3097 3.14364 16.779C3.84476 17.2483 4.66926 17.4992 5.51295 17.5001C6.07378 17.5017 6.62937 17.392 7.14754 17.1775C7.66571 16.9629 8.13618 16.6477 8.53169 16.2501L9.39107 15.3907C9.49222 15.2715 9.54506 15.1188 9.53917 14.9627C9.53329 14.8065 9.46912 14.6582 9.35929 14.547C9.24948 14.4358 9.10198 14.3698 8.9459 14.362C8.78981 14.3541 8.63646 14.4051 8.51607 14.5047Z" fill="black"/>
</svg>
