<svg width="21" height="20" viewBox="0 0 21 20" fill="none" xmlns="http://www.w3.org/2000/svg">
<path d="M8.73193 6.29688C9.85106 6.29696 10.9246 6.74127 11.7163 7.53223V7.5332C12.1218 7.93975 12.4413 8.42457 12.6538 8.95801C12.8663 9.49137 12.9675 10.0628 12.9526 10.6367C12.9482 10.7899 12.8833 10.9348 12.772 11.04C12.6606 11.1453 12.5121 11.2025 12.3589 11.1982C12.2056 11.1939 12.06 11.129 11.9546 11.0176C11.8492 10.9061 11.7921 10.7568 11.7964 10.6035C11.8147 9.98921 11.6481 9.38356 11.3179 8.86523C10.9876 8.34698 10.5093 7.94021 9.94482 7.69727C9.3802 7.45431 8.75537 7.38634 8.15186 7.50293C7.62405 7.60492 7.13367 7.84355 6.729 8.19336L6.56006 8.35059L3.8501 11.0654C3.42191 11.4939 3.13046 12.0397 3.01221 12.6338C2.89397 13.228 2.95433 13.8444 3.18604 14.4043C3.41774 14.9641 3.81041 15.4424 4.31396 15.7793C4.81746 16.1161 5.40937 16.2963 6.01514 16.2969C6.41906 16.2985 6.81964 16.2199 7.19287 16.0654C7.56608 15.911 7.90528 15.684 8.18994 15.3975L8.18896 15.3965L9.04541 14.541C9.15672 14.4489 9.29855 14.402 9.44287 14.4092C9.58725 14.4164 9.7241 14.4772 9.82568 14.5801C9.92716 14.6829 9.98626 14.8205 9.9917 14.9648C9.99703 15.1091 9.94842 15.2503 9.85498 15.3604L8.99854 16.2168H8.99756C8.60653 16.6099 8.14165 16.9216 7.62939 17.1338C7.11695 17.346 6.56684 17.4547 6.01221 17.4531C5.17799 17.4522 4.36272 17.2042 3.66943 16.7402C2.97605 16.2761 2.43556 15.6167 2.1167 14.8457C1.7979 14.0747 1.71443 13.2264 1.87744 12.4082C2.02018 11.6921 2.34622 11.0268 2.8208 10.4766L3.03271 10.248L5.74658 7.5332C6.53842 6.74176 7.61238 6.29688 8.73193 6.29688ZM14.98 2.5459C15.5346 2.5459 16.0848 2.65489 16.5972 2.86719C17.1094 3.07944 17.5743 3.39113 17.9663 3.7832C18.3724 4.19032 18.6922 4.67564 18.9048 5.20996C19.1173 5.74433 19.2182 6.31673 19.2026 6.8916C19.1716 7.96742 18.7298 8.99046 17.9673 9.75V9.75098L15.2524 12.4668H15.2515C14.8605 12.8599 14.3956 13.1716 13.8833 13.3838C13.371 13.596 12.8216 13.7047 12.2671 13.7031H12.2632C11.6992 13.7027 11.141 13.5889 10.6216 13.3691C10.1022 13.1494 9.63178 12.8283 9.23877 12.4238C8.84579 12.0194 8.53825 11.5401 8.3335 11.0146C8.12879 10.4892 8.03065 9.92792 8.04639 9.36426C8.0507 9.21092 8.11655 9.06533 8.22803 8.95996C8.33946 8.85469 8.48788 8.79748 8.64111 8.80176C8.79438 8.80607 8.94005 8.87103 9.04541 8.98242C9.15078 9.09389 9.20695 9.24315 9.20264 9.39648C9.1911 9.80574 9.26208 10.2132 9.41064 10.5947C9.55923 10.9763 9.78258 11.3245 10.0679 11.6182C10.3531 11.9118 10.6948 12.1451 11.0718 12.3047C11.4489 12.4642 11.8547 12.5466 12.2642 12.5469C12.6666 12.5479 13.0652 12.4694 13.437 12.3154C13.809 12.1614 14.1472 11.9348 14.4312 11.6494L17.146 8.93457C17.7147 8.35861 18.0323 7.58093 18.0298 6.77148C18.0273 5.96208 17.7046 5.18665 17.1323 4.61426C16.56 4.04193 15.7845 3.71846 14.9751 3.71582C14.1656 3.71329 13.388 4.03182 12.812 4.60059H12.811L11.9526 5.45898C11.8434 5.56275 11.698 5.62006 11.5474 5.61816C11.3966 5.61623 11.2526 5.55485 11.146 5.44824C11.0395 5.34165 10.978 5.19756 10.9761 5.04688C10.9743 4.89677 11.0312 4.75165 11.1343 4.64258L11.9937 3.7832C12.3857 3.391 12.8514 3.07948 13.3638 2.86719C13.876 2.65495 14.4255 2.54596 14.98 2.5459Z" fill="#1E1E1E" stroke="#1E1E1E" stroke-width="0.09375"/>
</svg>
