<svg width="154" height="126" viewBox="0 0 154 126" fill="none" xmlns="http://www.w3.org/2000/svg">
<path d="M107.943 119.307C100.945 122.115 93.3032 123.662 85.2993 123.662C67.4721 123.662 51.4365 115.994 40.3115 103.774" stroke="white" stroke-width="3.38097" stroke-miterlimit="10" stroke-linecap="round" stroke-linejoin="round"/>
<path d="M35.3838 28.0549C46.3767 12.3048 64.6343 2 85.2992 2C112.596 2 135.692 19.9785 143.393 44.7402" stroke="white" stroke-width="3.38097" stroke-miterlimit="10" stroke-linecap="round" stroke-linejoin="round"/>
<path d="M35.2215 84.3408H2" stroke="white" stroke-width="3.20534" stroke-miterlimit="10" stroke-linecap="round" stroke-linejoin="round"/>
<path d="M49.0271 96.5479H8.82422" stroke="white" stroke-width="3.20534" stroke-miterlimit="10" stroke-linecap="round" stroke-linejoin="round"/>
<path d="M146.105 112.728H68.3773C65.1348 112.728 62.4824 110.076 62.4824 106.833V58.1087C62.4824 54.8662 65.1348 52.2139 68.3773 52.2139H146.105C149.348 52.2139 152 54.8662 152 58.1087V106.833C152 110.076 149.348 112.728 146.105 112.728Z" stroke="white" stroke-width="3.38097" stroke-miterlimit="10" stroke-linecap="round" stroke-linejoin="round"/>
<path d="M62.4824 70.623H98.7015" stroke="white" stroke-width="3.38097" stroke-miterlimit="10" stroke-linecap="round" stroke-linejoin="round"/>
<path d="M114.077 73.5977H101.363C99.9014 73.5977 98.7041 72.4004 98.7041 70.939V70.3062C98.7041 68.8448 99.9014 67.6475 101.363 67.6475H114.077C115.539 67.6475 116.736 68.8448 116.736 70.3062V70.939C116.734 72.4025 115.539 73.5977 114.077 73.5977Z" stroke="white" stroke-width="3.38097" stroke-miterlimit="10" stroke-linecap="round" stroke-linejoin="round"/>
<path d="M83.8809 46.1698C83.8809 41.5745 87.6048 37.8506 92.2001 37.8506H122.284C126.879 37.8506 130.603 41.5745 130.603 46.1698" stroke="white" stroke-width="3.38097" stroke-miterlimit="10" stroke-linecap="round" stroke-linejoin="round"/>
<path d="M78.4824 52.2139V47.3842C78.4824 46.7174 79.0278 46.1699 79.6968 46.1699H88.065C88.7318 46.1699 89.2793 46.7153 89.2793 47.3842V52.2139" stroke="white" stroke-width="3.38097" stroke-miterlimit="10" stroke-linecap="round" stroke-linejoin="round"/>
<path d="M125.204 52.2139V47.3842C125.204 46.7174 125.749 46.1699 126.418 46.1699H134.787C135.453 46.1699 136.001 46.7153 136.001 47.3842V52.2139" stroke="white" stroke-width="3.38097" stroke-miterlimit="10" stroke-linecap="round" stroke-linejoin="round"/>
<path d="M116.733 70.3076H152" stroke="white" stroke-width="3.38097" stroke-miterlimit="10" stroke-linecap="round" stroke-linejoin="round"/>
<path d="M70.0207 75.7209L70.1017 70.2756L75.628 70.0945L82.7478 77.2143C84.7951 72.8342 84.0111 67.457 80.3937 63.8396C77.5624 61.0083 73.6552 59.9154 69.9888 60.5545V60.5524C68.7787 60.7655 67.4898 60.3969 66.5546 59.4616L53.8808 46.7879L48.0797 40.9868L46.4627 39.3698L45.0929 37.9999L33.7889 26.696C32.8537 25.7608 32.4851 24.4719 32.6982 23.2618H32.696C33.3352 19.5954 32.2423 15.6882 29.411 12.8569C25.7935 9.23947 20.4185 8.45547 16.0363 10.5028L23.1561 17.6226L22.975 23.1489L17.5297 23.2298L10.3886 16.0887C8.26881 20.4923 9.0315 25.9333 12.683 29.5848C15.5165 32.4183 19.4279 33.5112 23.0964 32.8678L23.0943 32.872C24.3044 32.659 25.5954 33.0212 26.5306 33.9543L28.3564 35.7801L37.8324 45.2561L39.2023 46.626L40.8193 48.2429L46.6204 54.044L57.4684 64.892L59.2942 66.7178C60.2294 67.653 60.5894 68.9441 60.3764 70.1541L60.3785 70.152C59.7373 73.8206 60.828 77.732 63.6615 80.5654C67.313 84.2169 72.7541 84.9796 77.1576 82.8599L70.0207 75.7209Z" fill="#F5F5F5" stroke="white" stroke-width="3.20534" stroke-miterlimit="10" stroke-linecap="round" stroke-linejoin="round"/>
<path d="M72.8855 24.3102L77.2976 24.5999L83.1456 13.3812L79.7518 9.98535L68.5331 15.8354L68.8207 20.2454L48.0791 40.9849L52.146 45.0518L72.8855 24.3102Z" stroke="white" stroke-width="3.20534" stroke-miterlimit="10" stroke-linecap="round" stroke-linejoin="round"/>
<path d="M40.82 48.2435L35.7871 53.2764L39.8529 57.3422L44.8858 52.3093L40.82 48.2435Z" stroke="white" stroke-width="3.20534" stroke-miterlimit="10" stroke-linecap="round" stroke-linejoin="round"/>
<path d="M38.7327 66.0898L27.0475 54.4045C26.7407 54.0977 26.7407 53.5971 27.0475 53.2903L30.8694 49.4684C31.1762 49.1616 31.6768 49.1616 31.9836 49.4684L43.6689 61.1536C43.9757 61.4604 43.9757 61.9611 43.6689 62.2678L39.8469 66.0898C39.538 66.3966 39.0374 66.3966 38.7327 66.0898Z" stroke="white" stroke-width="3.20534" stroke-miterlimit="10" stroke-linecap="round" stroke-linejoin="round"/>
<path d="M20.2232 82.1291C17.6773 84.675 13.5507 84.675 11.007 82.1291C8.4612 79.5833 8.4612 75.4567 11.007 72.913L28.2804 55.6396L37.4965 64.8558L20.2232 82.1291Z" stroke="white" stroke-width="3.20534" stroke-miterlimit="10" stroke-linecap="round" stroke-linejoin="round"/>
</svg>
