<svg width="82" height="58" viewBox="0 0 82 58" fill="none" xmlns="http://www.w3.org/2000/svg">
<path d="M23.81 36.3309C23.3519 34.3748 23.1094 32.3355 23.1094 30.2394C23.1094 15.5478 35.0193 3.6377 49.711 3.6377C53.0747 3.6377 56.2927 4.26196 59.2551 5.401" stroke="#292A61" stroke-width="1.5" stroke-miterlimit="10" stroke-linecap="round" stroke-linejoin="round"/>
<path d="M76.0377 26.4009C76.2189 27.6542 76.3127 28.9359 76.3127 30.2396C76.3127 44.9313 64.4027 56.8413 49.7109 56.8413C42.2209 56.8413 35.4538 53.7457 30.6191 48.7641" stroke="#292A61" stroke-width="1.5" stroke-miterlimit="10" stroke-linecap="round" stroke-linejoin="round"/>
<path d="M45.3773 7.86927C45.7279 6.8257 45.6344 5.65604 45.0188 4.66721C43.9039 2.87632 41.5007 2.35793 39.6515 3.5094C39.3327 3.70785 39.0521 3.94387 38.81 4.20631C38.7386 3.70959 38.5668 3.22139 38.2861 2.77074C37.1711 0.979845 34.768 0.461455 32.9186 1.61277C31.0694 2.76424 30.4742 5.14935 31.5891 6.9401C31.8702 7.39176 32.2334 7.7621 32.649 8.04563C32.3026 8.14688 31.9632 8.2958 31.6408 8.49642C29.7914 9.64774 29.1962 12.033 30.3111 13.8237C30.932 14.8214 31.9531 15.4235 33.0551 15.5628C32.0202 16.8184 31.83 18.6083 32.7128 20.0262C33.8277 21.8171 36.2308 22.3355 38.0802 21.1842C38.0953 21.1747 38.1099 21.1643 38.1251 21.1546C40.1029 22.6885 42.958 22.8897 45.2694 21.4505C47.5816 20.0111 48.6611 17.3595 48.1566 14.907C48.192 14.8864 48.2275 14.8664 48.2625 14.8446C50.1119 13.6933 50.7071 11.3081 49.5922 9.51717C48.6984 8.08188 46.9776 7.46484 45.3772 7.86898L45.3773 7.86927Z" fill="#FEFEFE" stroke="#292A61" stroke-width="1.5" stroke-miterlimit="10" stroke-linecap="round" stroke-linejoin="round"/>
<path d="M35.0059 4.89893L49.7342 28.5556" stroke="#292A61" stroke-width="1.5" stroke-miterlimit="10" stroke-linecap="round" stroke-linejoin="round"/>
<path d="M35.3691 13.8513L41.4938 15.2758" stroke="#292A61" stroke-width="1.5" stroke-miterlimit="10" stroke-linecap="round" stroke-linejoin="round"/>
<path d="M39.8137 5.87866L38.6904 10.708" stroke="#292A61" stroke-width="1.5" stroke-miterlimit="10" stroke-linecap="round" stroke-linejoin="round"/>
<path d="M45.9693 13.7275L44.501 20.0401" stroke="#292A61" stroke-width="1.5" stroke-miterlimit="10" stroke-linecap="round" stroke-linejoin="round"/>
<path d="M31.9766 47.1541L31.1487 49.9403L27.1035 50.737L26.0039 47.6434L27.8862 45.6191L31.9766 47.1541Z" stroke="#292A61" stroke-width="1.5" stroke-miterlimit="10" stroke-linecap="round" stroke-linejoin="round"/>
<path d="M37.4548 30.7636L34.0117 26.647L29.5205 28.7052L30.1193 31.8491L33.4877 32.4853L37.4548 30.7636Z" stroke="#292A61" stroke-width="1.5" stroke-miterlimit="10" stroke-linecap="round" stroke-linejoin="round"/>
<path d="M32.6393 38.2566L33.6438 41.3532L28.9902 42.207L29.5171 38.4262L32.6393 38.2566Z" stroke="#292A61" stroke-width="1.5" stroke-miterlimit="10" stroke-linecap="round" stroke-linejoin="round"/>
<path d="M53.2255 38.0422L53.8557 42.0457L49.1367 41.707L50.1553 36.9539L53.2255 38.0422Z" stroke="#292A61" stroke-width="1.5" stroke-miterlimit="10" stroke-linecap="round" stroke-linejoin="round"/>
<path d="M40.8062 45.0925L38.0551 44.5298L36.1621 46.468L37.2424 49.4067L40.306 48.0671L40.8062 45.0925Z" stroke="#292A61" stroke-width="1.5" stroke-miterlimit="10" stroke-linecap="round" stroke-linejoin="round"/>
<path d="M39.8555 38.3148C39.8555 38.8394 40.2807 39.2648 40.8054 39.2648C41.33 39.2648 41.7553 38.8394 41.7553 38.3148C41.7553 37.7902 41.33 37.365 40.8054 37.365C40.2807 37.365 39.8555 37.7902 39.8555 38.3148Z" fill="#292A61"/>
<path d="M25.7334 30.5159C25.7334 31.0405 26.1586 31.4657 26.6832 31.4657C27.2078 31.4657 27.6331 31.0405 27.6331 30.5159C27.6331 29.9913 27.2078 29.5659 26.6832 29.5659C26.1585 29.5659 25.7334 29.9913 25.7334 30.5159Z" fill="#292A61"/>
<path d="M46.1848 33.4349C46.1848 33.9595 45.7596 34.3849 45.235 34.3849C44.7104 34.3849 44.2852 33.9595 44.2852 33.4349C44.2852 32.9103 44.7104 32.4851 45.235 32.4851C45.7597 32.4851 46.1848 32.9103 46.1848 33.4349Z" fill="#292A61"/>
<path d="M52.0551 49.4065C52.0551 49.9311 51.6298 50.3563 51.1051 50.3563C50.5805 50.3563 50.1553 49.9311 50.1553 49.4065C50.1553 48.8819 50.5805 48.4565 51.1051 48.4565C51.6298 48.4565 52.0551 48.8819 52.0551 49.4065Z" fill="#292A61"/>
<path d="M80.8556 10.3306L64.1855 3.79126L53.7129 17.8016" stroke="#292A61" stroke-width="1.5" stroke-miterlimit="10" stroke-linecap="round" stroke-linejoin="round"/>
<path d="M77.5797 9.0332L55.7627 15.0384L57.9521 22.9922L62.2975 21.4605L67.8001 25.0939L81.0003 21.4605L77.5797 9.0332Z" stroke="#292A61" stroke-width="1.5" stroke-miterlimit="10" stroke-linecap="round" stroke-linejoin="round"/>
<path d="M72.3829 23.8323L67.7993 25.0941L66.123 19.0046L70.7068 17.7429L72.3829 23.8323Z" stroke="#292A61" stroke-width="1.5" stroke-miterlimit="10" stroke-linecap="round" stroke-linejoin="round"/>
<path d="M29.1524 36.3042L14.8109 25.5815L1 36.3162" stroke="#292A61" stroke-width="1.5" stroke-miterlimit="10" stroke-linecap="round" stroke-linejoin="round"/>
<path d="M26.3371 34.1853L3.70898 34.195V47.0806H12.6515L22.5519 47.0763L24.4701 45.2565L26.3412 43.4757L26.3371 34.1853Z" stroke="#292A61" stroke-width="1.5" stroke-miterlimit="10" stroke-linecap="round" stroke-linejoin="round"/>
<path d="M17.4062 47.0786L12.652 47.0806L12.6494 40.7647L17.4035 40.7627L17.4062 47.0786Z" stroke="#292A61" stroke-width="1.5" stroke-miterlimit="10" stroke-linecap="round" stroke-linejoin="round"/>
<path d="M19.1074 50.3565L26.3432 43.4757L34.5736 41.7699V36.9959L40.2287 32.9632L42.3821 27.4659L49.7122 28.8789L55.7951 25.0094L57.952 22.9923L62.2974 21.4607L67.7999 25.0942L81.0002 21.4607" stroke="#292A61" stroke-width="1.5" stroke-miterlimit="10" stroke-linecap="round" stroke-linejoin="round"/>
<path d="M68.3814 25.3557L59.2546 31.5449V35.455L56.8507 36.331L53.8555 42.0457" stroke="#292A61" stroke-width="1.5" stroke-miterlimit="10" stroke-linecap="round" stroke-linejoin="round"/>
</svg>
