<svg width="20" height="20" viewBox="0 0 20 20" fill="none" xmlns="http://www.w3.org/2000/svg">
<path d="M13.333 13.3334L15.833 6.66675L18.333 13.3334C17.608 13.8751 16.733 14.1667 15.833 14.1667C14.933 14.1667 14.058 13.8751 13.333 13.3334Z" stroke="#1E1E1E" stroke-width="1.5" stroke-linecap="round" stroke-linejoin="round"/>
<path d="M1.66699 13.3334L4.16699 6.66675L6.66699 13.3334C5.94199 13.8751 5.06699 14.1667 4.16699 14.1667C3.26699 14.1667 2.39199 13.8751 1.66699 13.3334Z" stroke="#1E1E1E" stroke-width="1.5" stroke-linecap="round" stroke-linejoin="round"/>
<path d="M5.83301 17.5H14.1663" stroke="#1E1E1E" stroke-width="1.5" stroke-linecap="round" stroke-linejoin="round"/>
<path d="M10 2.5V17.5" stroke="#1E1E1E" stroke-width="1.5" stroke-linecap="round" stroke-linejoin="round"/>
<path d="M2.5 5.83341H4.16667C5.83333 5.83341 8.33333 5.00008 10 4.16675C11.6667 5.00008 14.1667 5.83341 15.8333 5.83341H17.5" stroke="#1E1E1E" stroke-width="1.5" stroke-linecap="round" stroke-linejoin="round"/>
</svg>
