<svg width="20" height="20" viewBox="0 0 20 20" fill="none" xmlns="http://www.w3.org/2000/svg">
<rect width="20" height="20" rx="10" fill="#FFCC00"/>
<path d="M9.639 14V8.111C9.639 7.93767 9.639 7.76 9.639 7.578C9.64767 7.38733 9.65633 7.188 9.665 6.98C9.37033 7.266 9.03233 7.513 8.651 7.721C8.27833 7.92033 7.89267 8.06333 7.494 8.15L7.234 6.941C7.416 6.915 7.62833 6.85433 7.871 6.759C8.11367 6.66367 8.365 6.54233 8.625 6.395C8.885 6.24767 9.12333 6.09167 9.34 5.927C9.55667 5.75367 9.72567 5.58467 9.847 5.42H11.017V14H9.639Z" fill="#232B48"/>
</svg>
