<svg width="20" height="20" viewBox="0 0 20 20" fill="none" xmlns="http://www.w3.org/2000/svg">
<path d="M4.375 3H7.5C7.69891 3 7.88962 3.07907 8.03027 3.21973C8.17093 3.36038 8.25 3.55109 8.25 3.75V16.25C8.25 16.4489 8.17093 16.6396 8.03027 16.7803C7.88962 16.9209 7.69891 17 7.5 17H4.375C4.17609 17 3.98538 16.9209 3.84473 16.7803C3.70407 16.6396 3.625 16.4489 3.625 16.25V3.75C3.625 3.55109 3.70407 3.36038 3.84473 3.21973C3.98538 3.07907 4.17609 3 4.375 3ZM12.5 3H15.625C15.8239 3 16.0146 3.07907 16.1553 3.21973C16.2959 3.36038 16.375 3.55109 16.375 3.75V16.25C16.375 16.4489 16.2959 16.6396 16.1553 16.7803C16.0146 16.9209 15.8239 17 15.625 17H12.5C12.3011 17 12.1104 16.9209 11.9697 16.7803C11.8291 16.6396 11.75 16.4489 11.75 16.25V3.75C11.75 3.55109 11.8291 3.36038 11.9697 3.21973C12.1104 3.07907 12.3011 3 12.5 3Z" fill="black" stroke="white"/>
</svg>
