<svg width="20" height="20" viewBox="0 0 20 20" fill="none" xmlns="http://www.w3.org/2000/svg">
<path d="M14.375 5.62495C14.3751 4.78633 14.1341 3.96535 13.6809 3.25979C13.2276 2.55422 12.5811 1.9938 11.8183 1.64526C11.0555 1.29672 10.2087 1.17475 9.37853 1.29388C8.54842 1.413 7.77002 1.76821 7.13606 2.31718C6.50209 2.86616 6.03926 3.58578 5.80269 4.39034C5.56611 5.1949 5.56576 6.05051 5.80168 6.85526C6.0376 7.66002 6.49984 8.38002 7.13336 8.92951C7.76688 9.479 8.54498 9.83484 9.375 9.95464V18.125C9.375 18.2907 9.44085 18.4497 9.55806 18.5669C9.67527 18.6841 9.83424 18.75 10 18.75C10.1658 18.75 10.3247 18.6841 10.4419 18.5669C10.5592 18.4497 10.625 18.2907 10.625 18.125V9.95464C11.6656 9.80297 12.6169 9.28218 13.3053 8.48731C13.9938 7.69244 14.3734 6.67651 14.375 5.62495ZM10 8.74995C9.38193 8.74995 8.77775 8.56668 8.26384 8.2233C7.74994 7.87992 7.3494 7.39186 7.11288 6.82084C6.87635 6.24982 6.81447 5.62149 6.93505 5.0153C7.05562 4.40911 7.35325 3.85228 7.79029 3.41525C8.22733 2.97821 8.78415 2.68058 9.39034 2.56C9.99653 2.43942 10.6249 2.50131 11.1959 2.73783C11.7669 2.97435 12.255 3.37489 12.5983 3.8888C12.9417 4.4027 13.125 5.00689 13.125 5.62495C13.125 6.03534 13.0442 6.4417 12.8871 6.82084C12.7301 7.19998 12.4999 7.54448 12.2097 7.83466C11.9195 8.12485 11.575 8.35503 11.1959 8.51208C10.8167 8.66912 10.4104 8.74995 10 8.74995Z" fill="black"/>
</svg>
