<svg width="20" height="20" viewBox="0 0 20 20" fill="none" xmlns="http://www.w3.org/2000/svg">
<path d="M10.3333 18.3334C14.9357 18.3334 18.6667 14.6025 18.6667 10.0001C18.6667 5.39771 14.9357 1.66675 10.3333 1.66675C5.73096 1.66675 2 5.39771 2 10.0001C2 14.6025 5.73096 18.3334 10.3333 18.3334Z" stroke="#1E1E1E" stroke-width="1.8" stroke-linecap="round" stroke-linejoin="round"/>
<path d="M8 7.49999C8.19592 6.94304 8.58263 6.47341 9.09163 6.17426C9.60063 5.87512 10.1991 5.76577 10.781 5.86558C11.3629 5.96539 11.8907 6.26792 12.2709 6.71959C12.6511 7.17126 12.8592 7.74292 12.8583 8.33332C12.8583 9.99999 10.3583 10.8333 10.3583 10.8333" stroke="#1E1E1E" stroke-width="1.8" stroke-linecap="round" stroke-linejoin="round"/>
<path d="M10 14.1667H10.0083" stroke="#1E1E1E" stroke-width="1.8" stroke-linecap="round" stroke-linejoin="round"/>
</svg>
