<svg width="26" height="26" viewBox="0 0 26 26" fill="none" xmlns="http://www.w3.org/2000/svg">
<path d="M13.333 24C19.4081 24 24.333 19.0751 24.333 13C24.333 6.92487 19.4081 2 13.333 2C7.25788 2 2.33301 6.92487 2.33301 13C2.33301 19.0751 7.25788 24 13.333 24Z" stroke="#1E1E1E" stroke-width="1.98" stroke-linecap="round" stroke-linejoin="round"/>
<path d="M10.3994 9.74988C10.6541 9.02586 11.1568 8.41533 11.8185 8.02645C12.4802 7.63756 13.2582 7.4954 14.0147 7.62516C14.7712 7.75491 15.4573 8.1482 15.9516 8.73537C16.4459 9.32254 16.7164 10.0657 16.7152 10.8332C16.7152 12.9999 13.4652 14.0832 13.4652 14.0832" stroke="#1E1E1E" stroke-width="1.5" stroke-linecap="round" stroke-linejoin="round"/>
<path d="M13 18.4167H13.01" stroke="#1E1E1E" stroke-width="1.5" stroke-linecap="round" stroke-linejoin="round"/>
</svg>
