<svg width="20" height="20" viewBox="0 0 20 20" fill="none" xmlns="http://www.w3.org/2000/svg">
<path d="M3.30781 5.18281L6.43281 2.05781C6.4909 1.99979 6.55985 1.95378 6.63572 1.92241C6.71159 1.89105 6.7929 1.87494 6.875 1.875H13.125C13.4565 1.875 13.7745 2.0067 14.0089 2.24112C14.2433 2.47554 14.375 2.79348 14.375 3.125V4.375H15.625C15.9565 4.375 16.2745 4.5067 16.5089 4.74112C16.7433 4.97554 16.875 5.29348 16.875 5.625V16.875C16.875 17.2065 16.7433 17.5245 16.5089 17.7589C16.2745 17.9933 15.9565 18.125 15.625 18.125H6.875C6.54348 18.125 6.22554 17.9933 5.99112 17.7589C5.7567 17.5245 5.625 17.2065 5.625 16.875V15.625H4.375C4.04348 15.625 3.72554 15.4933 3.49112 15.2589C3.2567 15.0245 3.125 14.7065 3.125 14.375V5.625C3.12494 5.5429 3.14105 5.46159 3.17241 5.38572C3.20378 5.30985 3.24979 5.2409 3.30781 5.18281ZM6.875 16.875H15.625V5.625H9.63359L6.875 8.38359V14.9875C6.875 14.9922 6.875 14.9961 6.875 15C6.875 15.0039 6.875 15.0078 6.875 15.0125V16.875ZM4.375 14.375H5.625V8.125C5.62494 8.0429 5.64105 7.96159 5.67241 7.88572C5.70378 7.80985 5.74979 7.7409 5.80781 7.68281L8.93281 4.55781C8.9909 4.49979 9.05985 4.45378 9.13572 4.42241C9.21159 4.39105 9.2929 4.37494 9.375 4.375H13.125V3.125H7.13359L4.375 5.88359V14.375ZM8.75 11.875C8.75 12.0408 8.81585 12.1997 8.93306 12.3169C9.05027 12.4342 9.20924 12.5 9.375 12.5H13.125C13.2908 12.5 13.4497 12.4342 13.5669 12.3169C13.6842 12.1997 13.75 12.0408 13.75 11.875C13.75 11.7092 13.6842 11.5503 13.5669 11.4331C13.4497 11.3158 13.2908 11.25 13.125 11.25H9.375C9.20924 11.25 9.05027 11.3158 8.93306 11.4331C8.81585 11.5503 8.75 11.7092 8.75 11.875ZM8.75 14.375C8.75 14.5408 8.81585 14.6997 8.93306 14.8169C9.05027 14.9342 9.20924 15 9.375 15H13.125C13.2908 15 13.4497 14.9342 13.5669 14.8169C13.6842 14.6997 13.75 14.5408 13.75 14.375C13.75 14.2092 13.6842 14.0503 13.5669 13.9331C13.4497 13.8158 13.2908 13.75 13.125 13.75H9.375C9.20924 13.75 9.05027 13.8158 8.93306 13.9331C8.81585 14.0503 8.75 14.2092 8.75 14.375Z" fill="black"/>
</svg>
