<svg width="20" height="20" viewBox="0 0 20 20" fill="none" xmlns="http://www.w3.org/2000/svg">
<path d="M16.4675 3.06628L6.29172 1.26941C5.96528 1.21197 5.6294 1.28652 5.35792 1.47669C5.08644 1.66685 4.90161 1.95705 4.84406 2.28347L2.51985 15.4866C2.49142 15.6483 2.49514 15.8141 2.53081 15.9744C2.56647 16.1347 2.63337 16.2864 2.72769 16.4209C2.82201 16.5553 2.9419 16.6699 3.0805 16.7579C3.2191 16.846 3.3737 16.9059 3.53547 16.9343L13.7113 18.7311C13.8731 18.7597 14.0389 18.756 14.1993 18.7204C14.3597 18.6848 14.5115 18.6179 14.646 18.5236C14.7806 18.4293 14.8952 18.3093 14.9833 18.1707C15.0714 18.032 15.1314 17.8773 15.1597 17.7155L17.4839 4.51238C17.5408 4.18584 17.4658 3.85005 17.2752 3.57886C17.0845 3.30768 16.794 3.1233 16.4675 3.06628ZM13.9269 17.4999L3.75031 15.703L6.07453 2.49988L16.2503 4.29675L13.9269 17.4999ZM6.98 4.56394C7.00895 4.40079 7.1015 4.25582 7.23731 4.16089C7.37311 4.06596 7.54106 4.02884 7.70422 4.05769L14.1886 5.20222C14.3427 5.22922 14.4811 5.31303 14.5764 5.43711C14.6717 5.56118 14.717 5.71649 14.7034 5.87235C14.6897 6.02821 14.6181 6.17328 14.5027 6.27891C14.3873 6.38454 14.2365 6.44304 14.08 6.44285C14.0433 6.4428 14.0068 6.43966 13.9706 6.43347L7.48625 5.28816C7.32311 5.25921 7.17813 5.16666 7.0832 5.03085C6.98827 4.89505 6.95115 4.7271 6.98 4.56394ZM6.54719 7.02644C6.56143 6.94559 6.59147 6.86833 6.63558 6.79909C6.67969 6.72985 6.737 6.66998 6.80426 6.62289C6.87151 6.57581 6.94738 6.54243 7.02754 6.52468C7.10769 6.50692 7.19056 6.50513 7.27141 6.51941L13.7558 7.66472C13.911 7.69068 14.0507 7.77422 14.147 7.89865C14.2433 8.02309 14.2891 8.17927 14.2753 8.33601C14.2615 8.49275 14.189 8.63852 14.0725 8.7442C13.9559 8.84988 13.8037 8.90771 13.6464 8.90613C13.6095 8.9062 13.5726 8.9028 13.5363 8.89597L7.05188 7.75144C6.88886 7.72214 6.74414 7.62932 6.64951 7.49338C6.55488 7.35744 6.51808 7.1895 6.54719 7.02644ZM6.1136 9.48816C6.14309 9.32544 6.23587 9.18105 6.37161 9.0866C6.50735 8.99215 6.67499 8.95535 6.83781 8.98425L10.0784 9.55379C10.2325 9.58077 10.3708 9.66453 10.4661 9.78851C10.5614 9.9125 10.6068 10.0677 10.5932 10.2235C10.5797 10.3793 10.5083 10.5244 10.393 10.6301C10.2777 10.7358 10.127 10.7944 9.97063 10.7944C9.93397 10.7944 9.89738 10.7913 9.86125 10.785L6.61906 10.2124C6.45606 10.1832 6.31128 10.0906 6.21651 9.95484C6.12174 9.81905 6.08473 9.65121 6.1136 9.48816Z" fill="#1E1E1E"/>
</svg>
