<svg width="20" height="20" viewBox="0 0 20 20" fill="none" xmlns="http://www.w3.org/2000/svg">
<path d="M8.58203 1.75903C10.3788 1.7182 12.1229 2.37244 13.4502 3.58423C14.7772 4.79599 15.5856 6.473 15.708 8.26587C15.8283 10.0285 15.2746 11.7685 14.1631 13.1389L18.0127 16.9866C18.08 17.0538 18.1335 17.1341 18.1699 17.2219C18.2064 17.3099 18.2246 17.405 18.2246 17.5002C18.2246 17.5954 18.2063 17.6897 18.1699 17.7776C18.1335 17.8656 18.08 17.9456 18.0127 18.0129C17.9453 18.0803 17.8653 18.1337 17.7773 18.1702C17.6894 18.2066 17.5952 18.2248 17.5 18.2249C17.4047 18.2249 17.3097 18.2066 17.2217 18.1702C17.1338 18.1337 17.0536 18.0802 16.9863 18.0129L13.1387 14.1633C11.7683 15.2748 10.0283 15.8285 8.26562 15.7083C6.47276 15.5858 4.79575 14.7774 3.58398 13.4504C2.37219 12.1232 1.71795 10.379 1.75879 8.58228C1.7997 6.78561 2.53197 5.07375 3.80273 3.80298C5.0735 2.53221 6.78537 1.79994 8.58203 1.75903ZM9.82715 3.3313C8.7556 3.11823 7.64513 3.2277 6.63574 3.64575C5.62638 4.06385 4.76333 4.7716 4.15625 5.67993C3.54916 6.58851 3.22461 7.6575 3.22461 8.75024C3.22635 10.2149 3.80913 11.6188 4.84473 12.6545C5.88053 13.6903 7.28515 14.273 8.75 14.2747C9.84263 14.2746 10.9108 13.951 11.8193 13.344C12.7279 12.7369 13.4363 11.874 13.8545 10.8645C14.2726 9.85498 14.3821 8.74382 14.1689 7.67212C13.9558 6.60037 13.4289 5.6157 12.6562 4.84302C11.8836 4.07043 10.8988 3.54447 9.82715 3.3313Z" fill="black" stroke="black" stroke-width="0.2"/>
</svg>
