<svg width="20" height="20" viewBox="0 0 20 20" fill="none" xmlns="http://www.w3.org/2000/svg">
<path d="M9.375 3.25V2.625C9.375 2.45924 9.44085 2.30027 9.55806 2.18306C9.67527 2.06585 9.83424 2 10 2C10.1658 2 10.3247 2.06585 10.4419 2.18306C10.5592 2.30027 10.625 2.45924 10.625 2.625V3.25C10.625 3.41576 10.5592 3.57473 10.4419 3.69194C10.3247 3.80915 10.1658 3.875 10 3.875C9.83424 3.875 9.67527 3.80915 9.55806 3.69194C9.44085 3.57473 9.375 3.41576 9.375 3.25ZM15.625 5.75C15.7071 5.75006 15.7884 5.73395 15.8643 5.70259C15.9402 5.67122 16.0091 5.62521 16.0672 5.56719L16.6922 4.94219C16.8095 4.82491 16.8753 4.66585 16.8753 4.5C16.8753 4.33415 16.8095 4.17509 16.6922 4.05781C16.5749 3.94054 16.4159 3.87465 16.25 3.87465C16.0841 3.87465 15.9251 3.94054 15.8078 4.05781L15.1828 4.68281C15.0953 4.77022 15.0357 4.88163 15.0115 5.00293C14.9874 5.12424 14.9998 5.24998 15.0471 5.36424C15.0945 5.47851 15.1746 5.57616 15.2775 5.64483C15.3804 5.71349 15.5013 5.7501 15.625 5.75ZM3.93281 5.56719C3.99088 5.62526 4.05982 5.67132 4.13569 5.70275C4.21156 5.73417 4.29288 5.75035 4.375 5.75035C4.45712 5.75035 4.53844 5.73417 4.61431 5.70275C4.69018 5.67132 4.75912 5.62526 4.81719 5.56719C4.87526 5.50912 4.92132 5.44018 4.95275 5.36431C4.98417 5.28844 5.00035 5.20712 5.00035 5.125C5.00035 5.04288 4.98417 4.96156 4.95275 4.88569C4.92132 4.80982 4.87526 4.74088 4.81719 4.68281L4.19219 4.05781C4.07491 3.94054 3.91585 3.87465 3.75 3.87465C3.58415 3.87465 3.42509 3.94054 3.30781 4.05781C3.19054 4.17509 3.12465 4.33415 3.12465 4.5C3.12465 4.66585 3.19054 4.82491 3.30781 4.94219L3.93281 5.56719ZM10.7297 7.63359C10.6484 7.61922 10.565 7.62109 10.4845 7.63911C10.4039 7.65712 10.3277 7.69092 10.2603 7.73856C10.1928 7.7862 10.1355 7.84672 10.0916 7.91664C10.0477 7.98656 10.018 8.06448 10.0044 8.14592C9.99079 8.22735 9.99344 8.31067 10.0122 8.39107C10.031 8.47148 10.0655 8.54737 10.1137 8.61436C10.162 8.68135 10.223 8.73812 10.2934 8.78138C10.3637 8.82464 10.4419 8.85354 10.5234 8.86641C12.0055 9.11562 13.125 10.4625 13.125 12C13.125 12.1658 13.1908 12.3247 13.3081 12.4419C13.4253 12.5592 13.5842 12.625 13.75 12.625C13.9158 12.625 14.0747 12.5592 14.1919 12.4419C14.3092 12.3247 14.375 12.1658 14.375 12C14.375 9.85938 12.807 7.98203 10.7281 7.63359H10.7297ZM18.125 15.75V17.625C18.125 17.9565 17.9933 18.2745 17.7589 18.5089C17.5245 18.7433 17.2065 18.875 16.875 18.875H3.125C2.79348 18.875 2.47554 18.7433 2.24112 18.5089C2.0067 18.2745 1.875 17.9565 1.875 17.625V15.75C1.875 15.4185 2.0067 15.1005 2.24112 14.8661C2.47554 14.6317 2.79348 14.5 3.125 14.5V12C3.12497 11.0927 3.30452 10.1944 3.65329 9.3569C4.00206 8.51936 4.51315 7.75913 5.15711 7.12004C5.80107 6.48095 6.56515 5.97564 7.40532 5.63323C8.24548 5.29082 9.14511 5.11809 10.0523 5.125C13.8141 5.15313 16.875 8.27266 16.875 12.0781V14.5C17.2065 14.5 17.5245 14.6317 17.7589 14.8661C17.9933 15.1005 18.125 15.4185 18.125 15.75ZM4.375 14.5H15.625V12.0781C15.625 8.95312 13.1211 6.39766 10.043 6.375H10C8.50816 6.375 7.07742 6.96763 6.02252 8.02252C4.96763 9.07742 4.375 10.5082 4.375 12V14.5ZM16.875 17.625V15.75H3.125V17.625H16.875Z" fill="black"/>
</svg>
