<svg width="20" height="20" viewBox="0 0 20 20" fill="none" xmlns="http://www.w3.org/2000/svg">
<path d="M18.6864 7.59833C18.6082 7.35812 18.4607 7.1464 18.2625 6.98986C18.0642 6.83331 17.8241 6.73895 17.5723 6.71864L12.9629 6.34677L11.1832 2.04286C11.087 1.80834 10.9232 1.60774 10.7126 1.46656C10.5021 1.32538 10.2543 1.25 10.0008 1.25C9.74731 1.25 9.49954 1.32538 9.28899 1.46656C9.07844 1.60774 8.91463 1.80834 8.81839 2.04286L7.04026 6.34599L2.42854 6.71864C2.17634 6.73997 1.93604 6.83526 1.73774 6.99255C1.53945 7.14985 1.39199 7.36217 1.31383 7.6029C1.23567 7.84364 1.23029 8.10209 1.29836 8.34587C1.36644 8.58965 1.50494 8.80792 1.69651 8.97333L5.21214 12.0069L4.14104 16.5429C4.08114 16.7893 4.09581 17.048 4.18318 17.286C4.27056 17.5241 4.4267 17.7309 4.63179 17.88C4.83688 18.0292 5.08167 18.1141 5.33509 18.1239C5.5885 18.1337 5.83911 18.0679 6.05511 17.935L10.0004 15.5069L13.9481 17.935C14.1641 18.0664 14.4142 18.1308 14.6669 18.1203C14.9195 18.1098 15.1634 18.0247 15.3678 17.8759C15.5722 17.727 15.7279 17.521 15.8155 17.2838C15.903 17.0466 15.9185 16.7888 15.8598 16.5429L14.7848 12.0061L18.3004 8.97255C18.4935 8.80741 18.6333 8.58867 18.702 8.34403C18.7707 8.09939 18.7653 7.83987 18.6864 7.59833ZM17.4879 8.02567L13.6832 11.3069C13.5965 11.3817 13.5319 11.4789 13.4967 11.5879C13.4614 11.6969 13.4567 11.8134 13.4832 11.9249L14.6457 16.8311C14.6487 16.8379 14.649 16.8456 14.6466 16.8525C14.6441 16.8595 14.639 16.8653 14.6324 16.8686C14.6184 16.8796 14.6145 16.8772 14.6028 16.8686L10.3278 14.2397C10.2293 14.1792 10.116 14.1472 10.0004 14.1472C9.88484 14.1472 9.77153 14.1792 9.67307 14.2397L5.39808 16.8702C5.38636 16.8772 5.38323 16.8796 5.36839 16.8702C5.36179 16.8668 5.35674 16.8611 5.35427 16.8541C5.3518 16.8471 5.3521 16.8395 5.35511 16.8327L6.51761 11.9265C6.5441 11.815 6.53946 11.6984 6.50419 11.5894C6.46892 11.4805 6.40437 11.3833 6.31761 11.3085L2.51292 8.02724C2.50354 8.01942 2.49495 8.01239 2.50276 7.98817C2.51058 7.96395 2.51683 7.96708 2.52854 7.96552L7.52229 7.56239C7.63683 7.55257 7.74644 7.51134 7.83907 7.44325C7.93169 7.37516 8.00374 7.28285 8.04729 7.17645L9.97073 2.51942C9.97698 2.50614 9.97933 2.49989 9.99808 2.49989C10.0168 2.49989 10.0192 2.50614 10.0254 2.51942L11.9535 7.17645C11.9975 7.28289 12.07 7.3751 12.1631 7.44293C12.2561 7.51076 12.3661 7.55156 12.4809 7.56083L17.4746 7.96395C17.4864 7.96395 17.4934 7.96395 17.5004 7.98661C17.5075 8.00927 17.5004 8.01786 17.4879 8.02567Z" fill="black"/>
</svg>
