<svg width="20" height="20" viewBox="0 0 20 20" fill="none" xmlns="http://www.w3.org/2000/svg">
<path d="M17.375 4.46154H14.25V3.84615C14.25 3.35652 14.0525 2.88695 13.7008 2.54073C13.3492 2.19451 12.8723 2 12.375 2H8.625C8.12772 2 7.65081 2.19451 7.29917 2.54073C6.94754 2.88695 6.75 3.35652 6.75 3.84615V4.46154H3.625C3.45924 4.46154 3.30027 4.52637 3.18306 4.64178C3.06585 4.75719 3 4.91371 3 5.07692C3 5.24013 3.06585 5.39666 3.18306 5.51207C3.30027 5.62747 3.45924 5.69231 3.625 5.69231H4.25V16.7692C4.25 17.0957 4.3817 17.4087 4.61612 17.6395C4.85054 17.8703 5.16848 18 5.5 18H15.5C15.8315 18 16.1495 17.8703 16.3839 17.6395C16.6183 17.4087 16.75 17.0957 16.75 16.7692V5.69231H17.375C17.5408 5.69231 17.6997 5.62747 17.8169 5.51207C17.9342 5.39666 18 5.24013 18 5.07692C18 4.91371 17.9342 4.75719 17.8169 4.64178C17.6997 4.52637 17.5408 4.46154 17.375 4.46154ZM8 3.84615C8 3.68294 8.06585 3.52642 8.18306 3.41101C8.30027 3.2956 8.45924 3.23077 8.625 3.23077H12.375C12.5408 3.23077 12.6997 3.2956 12.8169 3.41101C12.9342 3.52642 13 3.68294 13 3.84615V4.46154H8V3.84615ZM15.5 16.7692H5.5V5.69231H15.5V16.7692ZM9.25 8.76923V13.6923C9.25 13.8555 9.18415 14.012 9.06694 14.1275C8.94973 14.2429 8.79076 14.3077 8.625 14.3077C8.45924 14.3077 8.30027 14.2429 8.18306 14.1275C8.06585 14.012 8 13.8555 8 13.6923V8.76923C8 8.60602 8.06585 8.4495 8.18306 8.33409C8.30027 8.21868 8.45924 8.15385 8.625 8.15385C8.79076 8.15385 8.94973 8.21868 9.06694 8.33409C9.18415 8.4495 9.25 8.60602 9.25 8.76923ZM13 8.76923V13.6923C13 13.8555 12.9342 14.012 12.8169 14.1275C12.6997 14.2429 12.5408 14.3077 12.375 14.3077C12.2092 14.3077 12.0503 14.2429 11.9331 14.1275C11.8158 14.012 11.75 13.8555 11.75 13.6923V8.76923C11.75 8.60602 11.8158 8.4495 11.9331 8.33409C12.0503 8.21868 12.2092 8.15385 12.375 8.15385C12.5408 8.15385 12.6997 8.21868 12.8169 8.33409C12.9342 8.4495 13 8.60602 13 8.76923Z" fill="black"/>
</svg>
