<svg width="20" height="20" viewBox="0 0 20 20" fill="none" xmlns="http://www.w3.org/2000/svg">
<path d="M6.875 8.12495H3.125C2.95924 8.12495 2.80027 8.0591 2.68306 7.94189C2.56585 7.82468 2.5 7.66571 2.5 7.49995V3.74995C2.5 3.58419 2.56585 3.42522 2.68306 3.30801C2.80027 3.1908 2.95924 3.12495 3.125 3.12495C3.29076 3.12495 3.44973 3.1908 3.56694 3.30801C3.68415 3.42522 3.75 3.58419 3.75 3.74995V5.99136L4.89297 4.84839C6.28688 3.44746 8.18 2.65728 10.1562 2.65151H10.1977C12.1571 2.64647 14.0396 3.41357 15.4375 4.78667C15.5516 4.90344 15.6155 5.06023 15.6156 5.22352C15.6156 5.3868 15.5517 5.54361 15.4375 5.66038C15.3234 5.77716 15.1681 5.84464 15.0049 5.84839C14.8416 5.85213 14.6834 5.79184 14.5641 5.68042C13.3989 4.53673 11.8303 3.89769 10.1977 3.90151H10.1625C8.51577 3.90658 6.93834 4.56492 5.77656 5.73198L4.63359 6.87495H6.875C7.04076 6.87495 7.19973 6.9408 7.31694 7.05801C7.43415 7.17522 7.5 7.33419 7.5 7.49995C7.5 7.66571 7.43415 7.82468 7.31694 7.94189C7.19973 8.0591 7.04076 8.12495 6.875 8.12495ZM16.875 11.875H13.125C12.9592 11.875 12.8003 11.9408 12.6831 12.058C12.5658 12.1752 12.5 12.3342 12.5 12.5C12.5 12.6657 12.5658 12.8247 12.6831 12.9419C12.8003 13.0591 12.9592 13.125 13.125 13.125H15.3664L14.2234 14.2679C13.0619 15.4348 11.4847 16.0931 9.83828 16.0984H9.80313C8.17045 16.1022 6.60189 15.4632 5.43672 14.3195C5.37851 14.2599 5.30898 14.2126 5.23222 14.1803C5.15546 14.148 5.07302 14.1314 4.98974 14.1314C4.90646 14.1314 4.82402 14.148 4.74727 14.1803C4.67051 14.2126 4.60099 14.26 4.54278 14.3195C4.48457 14.3791 4.43886 14.4497 4.40832 14.5272C4.37778 14.6046 4.36303 14.6874 4.36494 14.7707C4.36685 14.854 4.38538 14.936 4.41944 15.012C4.4535 15.088 4.5024 15.1564 4.56328 15.2132C5.96115 16.5863 7.84369 17.3534 9.80313 17.3484H9.84375C11.8197 17.3424 13.7125 16.5523 15.1062 15.1515L16.25 14.0085V16.25C16.25 16.4157 16.3158 16.5747 16.4331 16.6919C16.5503 16.8091 16.7092 16.875 16.875 16.875C17.0408 16.875 17.1997 16.8091 17.3169 16.6919C17.4342 16.5747 17.5 16.4157 17.5 16.25V12.5C17.5 12.3342 17.4342 12.1752 17.3169 12.058C17.1997 11.9408 17.0408 11.875 16.875 11.875Z" fill="black"/>
</svg>
