<svg width="20" height="20" viewBox="0 0 20 20" fill="none" xmlns="http://www.w3.org/2000/svg">
<path d="M5.67217 6.48907C5.6248 6.37488 5.61235 6.2492 5.63641 6.12794C5.66047 6.00668 5.71995 5.89527 5.80733 5.80782L9.55733 2.05782C9.61537 1.99971 9.6843 1.95361 9.76018 1.92215C9.83605 1.8907 9.91738 1.87451 9.99952 1.87451C10.0817 1.87451 10.163 1.8907 10.2389 1.92215C10.3147 1.95361 10.3837 1.99971 10.4417 2.05782L14.1917 5.80782C14.2792 5.89523 14.3388 6.00663 14.363 6.12794C14.3871 6.24924 14.3747 6.37498 14.3274 6.48925C14.2801 6.60351 14.1999 6.70116 14.097 6.76983C13.9941 6.8385 13.8732 6.8751 13.7495 6.875H6.24952C6.1259 6.87498 6.00507 6.8383 5.90231 6.7696C5.79954 6.70091 5.71945 6.60328 5.67217 6.48907ZM13.7495 13.125H6.24952C6.12583 13.1249 6.0049 13.1615 5.90203 13.2302C5.79916 13.2988 5.71897 13.3965 5.67163 13.5108C5.62428 13.625 5.6119 13.7508 5.63606 13.8721C5.66022 13.9934 5.71982 14.1048 5.80733 14.1922L9.55733 17.9422C9.61537 18.0003 9.6843 18.0464 9.76018 18.0779C9.83605 18.1093 9.91738 18.1255 9.99952 18.1255C10.0817 18.1255 10.163 18.1093 10.2389 18.0779C10.3147 18.0464 10.3837 18.0003 10.4417 17.9422L14.1917 14.1922C14.2792 14.1048 14.3388 13.9934 14.363 13.8721C14.3871 13.7508 14.3747 13.625 14.3274 13.5108C14.2801 13.3965 14.1999 13.2988 14.097 13.2302C13.9941 13.1615 13.8732 13.1249 13.7495 13.125Z" fill="#1E1E1E"/>
</svg>
