<svg width="20" height="20" viewBox="0 0 20 20" fill="none" xmlns="http://www.w3.org/2000/svg">
<path d="M11.667 15V5.00004C11.667 4.55801 11.4914 4.13409 11.1788 3.82153C10.8663 3.50897 10.4424 3.33337 10.0003 3.33337H3.33366C2.89163 3.33337 2.46771 3.50897 2.15515 3.82153C1.84259 4.13409 1.66699 4.55801 1.66699 5.00004V14.1667C1.66699 14.3877 1.75479 14.5997 1.91107 14.756C2.06735 14.9122 2.27931 15 2.50033 15H4.16699" stroke="#1E1E1E" stroke-width="1.5" stroke-linecap="round" stroke-linejoin="round"/>
<path d="M12.5 15H7.5" stroke="#1E1E1E" stroke-width="1.5" stroke-linecap="round" stroke-linejoin="round"/>
<path d="M15.8337 15H17.5003C17.7213 15 17.9333 14.9122 18.0896 14.7559C18.2459 14.5996 18.3337 14.3876 18.3337 14.1666V11.125C18.3333 10.9358 18.2687 10.7525 18.1503 10.605L15.2503 6.97996C15.1724 6.88236 15.0735 6.80353 14.961 6.74929C14.8485 6.69506 14.7252 6.6668 14.6003 6.66663H11.667" stroke="#1E1E1E" stroke-width="1.5" stroke-linecap="round" stroke-linejoin="round"/>
<path d="M14.1667 16.6667C15.0871 16.6667 15.8333 15.9205 15.8333 15C15.8333 14.0796 15.0871 13.3334 14.1667 13.3334C13.2462 13.3334 12.5 14.0796 12.5 15C12.5 15.9205 13.2462 16.6667 14.1667 16.6667Z" stroke="#1E1E1E" stroke-width="1.5" stroke-linecap="round" stroke-linejoin="round"/>
<path d="M5.83366 16.6667C6.75413 16.6667 7.50033 15.9205 7.50033 15C7.50033 14.0796 6.75413 13.3334 5.83366 13.3334C4.91318 13.3334 4.16699 14.0796 4.16699 15C4.16699 15.9205 4.91318 16.6667 5.83366 16.6667Z" stroke="#1E1E1E" stroke-width="1.5" stroke-linecap="round" stroke-linejoin="round"/>
</svg>
