<svg width="62" height="19" viewBox="0 0 62 19" fill="none" xmlns="http://www.w3.org/2000/svg">
<path d="M2.54922 4.8V18H0.409219V4.8H2.54922ZM1.88922 0.0599997H3.96922L2.22922 3.26H0.589219L1.88922 0.0599997ZM10.3472 7.8C11.1472 7.8 11.8272 7.92 12.3872 8.16C12.9605 8.38667 13.4405 8.71333 13.8272 9.14C14.2139 9.56667 14.5072 10.0533 14.7072 10.6L12.6872 11.4C12.5139 10.7867 12.2339 10.32 11.8472 10C11.4739 9.66667 10.9805 9.5 10.3672 9.5C9.76719 9.5 9.25385 9.64 8.82719 9.92C8.40052 10.1867 8.07385 10.58 7.84719 11.1C7.63385 11.62 7.52719 12.26 7.52719 13.02C7.52719 13.7667 7.64052 14.4 7.86719 14.92C8.09385 15.44 8.42052 15.8333 8.84719 16.1C9.27385 16.3667 9.78052 16.5 10.3672 16.5C10.8205 16.5 11.2139 16.4267 11.5472 16.28C11.8805 16.12 12.1539 15.9 12.3672 15.62C12.5939 15.3267 12.7472 14.9733 12.8272 14.56L14.7672 15.22C14.5805 15.82 14.2872 16.3467 13.8872 16.8C13.5005 17.24 13.0139 17.5867 12.4272 17.84C11.8405 18.08 11.1672 18.2 10.4072 18.2C9.42052 18.2 8.54719 17.9933 7.78719 17.58C7.02719 17.1667 6.43385 16.5733 6.00719 15.8C5.59385 15.0133 5.38719 14.08 5.38719 13C5.38719 11.92 5.59385 10.9933 6.00719 10.22C6.43385 9.43333 7.02052 8.83333 7.76719 8.42C8.52719 8.00667 9.38719 7.8 10.3472 7.8ZM21.5977 7.8C22.571 7.8 23.431 8.00667 24.1777 8.42C24.9243 8.83333 25.5043 9.43333 25.9177 10.22C26.3443 10.9933 26.5577 11.92 26.5577 13C26.5577 14.08 26.3443 15.0133 25.9177 15.8C25.5043 16.5733 24.9243 17.1667 24.1777 17.58C23.431 17.9933 22.571 18.2 21.5977 18.2C20.6243 18.2 19.7643 17.9933 19.0177 17.58C18.271 17.1667 17.6843 16.5733 17.2577 15.8C16.831 15.0133 16.6177 14.08 16.6177 13C16.6177 11.92 16.831 10.9933 17.2577 10.22C17.6843 9.43333 18.271 8.83333 19.0177 8.42C19.7643 8.00667 20.6243 7.8 21.5977 7.8ZM21.5977 9.48C20.9977 9.48 20.4843 9.62 20.0577 9.9C19.6443 10.1667 19.3243 10.56 19.0977 11.08C18.871 11.6 18.7577 12.24 18.7577 13C18.7577 13.7467 18.871 14.3867 19.0977 14.92C19.3243 15.44 19.6443 15.84 20.0577 16.12C20.4843 16.3867 20.9977 16.52 21.5977 16.52C22.1977 16.52 22.7043 16.3867 23.1177 16.12C23.531 15.84 23.851 15.44 24.0777 14.92C24.3043 14.3867 24.4177 13.7467 24.4177 13C24.4177 12.24 24.3043 11.6 24.0777 11.08C23.851 10.56 23.531 10.1667 23.1177 9.9C22.7043 9.62 22.1977 9.48 21.5977 9.48ZM29.2498 18V8H31.1498L31.2898 10.6L31.0098 10.32C31.1965 9.74667 31.4632 9.27333 31.8098 8.9C32.1698 8.51333 32.5898 8.23333 33.0698 8.06C33.5632 7.88667 34.0832 7.8 34.6298 7.8C35.3365 7.8 35.9698 7.94 36.5298 8.22C37.1032 8.48667 37.5565 8.89333 37.8898 9.44C38.2232 9.98667 38.3898 10.68 38.3898 11.52V18H36.2498V12.18C36.2498 11.1933 36.0432 10.5133 35.6298 10.14C35.2298 9.75333 34.7232 9.56 34.1098 9.56C33.6698 9.56 33.2432 9.66667 32.8298 9.88C32.4165 10.08 32.0698 10.4067 31.7898 10.86C31.5232 11.3133 31.3898 11.92 31.3898 12.68V18H29.2498ZM45.9727 7.8C46.946 7.8 47.806 8.00667 48.5527 8.42C49.2993 8.83333 49.8793 9.43333 50.2927 10.22C50.7193 10.9933 50.9327 11.92 50.9327 13C50.9327 14.08 50.7193 15.0133 50.2927 15.8C49.8793 16.5733 49.2993 17.1667 48.5527 17.58C47.806 17.9933 46.946 18.2 45.9727 18.2C44.9993 18.2 44.1393 17.9933 43.3927 17.58C42.646 17.1667 42.0593 16.5733 41.6327 15.8C41.206 15.0133 40.9927 14.08 40.9927 13C40.9927 11.92 41.206 10.9933 41.6327 10.22C42.0593 9.43333 42.646 8.83333 43.3927 8.42C44.1393 8.00667 44.9993 7.8 45.9727 7.8ZM45.9727 9.48C45.3727 9.48 44.8593 9.62 44.4327 9.9C44.0193 10.1667 43.6993 10.56 43.4727 11.08C43.246 11.6 43.1327 12.24 43.1327 13C43.1327 13.7467 43.246 14.3867 43.4727 14.92C43.6993 15.44 44.0193 15.84 44.4327 16.12C44.8593 16.3867 45.3727 16.52 45.9727 16.52C46.5727 16.52 47.0793 16.3867 47.4927 16.12C47.906 15.84 48.226 15.44 48.4527 14.92C48.6793 14.3867 48.7927 13.7467 48.7927 13C48.7927 12.24 48.6793 11.6 48.4527 11.08C48.226 10.56 47.906 10.1667 47.4927 9.9C47.0793 9.62 46.5727 9.48 45.9727 9.48ZM57.4248 18.2C56.4248 18.2 55.5115 18.0067 54.6848 17.62C53.8582 17.2333 53.2048 16.6867 52.7248 15.98L54.2048 14.7C54.4982 15.2467 54.9182 15.6867 55.4648 16.02C56.0248 16.34 56.6915 16.5 57.4648 16.5C58.0782 16.5 58.5648 16.3933 58.9248 16.18C59.2848 15.9667 59.4648 15.6667 59.4648 15.28C59.4648 15.0267 59.3782 14.8067 59.2048 14.62C59.0448 14.42 58.7315 14.2667 58.2648 14.16L56.1648 13.72C55.0982 13.5067 54.3382 13.1667 53.8848 12.7C53.4315 12.22 53.2048 11.6133 53.2048 10.88C53.2048 10.3333 53.3648 9.82667 53.6848 9.36C54.0048 8.89333 54.4715 8.52 55.0848 8.24C55.7115 7.94667 56.4582 7.8 57.3248 7.8C58.3248 7.8 59.1782 7.98 59.8848 8.34C60.5915 8.68667 61.1315 9.18667 61.5048 9.84L60.0248 11.08C59.7715 10.5467 59.3982 10.1533 58.9048 9.9C58.4115 9.63333 57.8982 9.5 57.3648 9.5C56.9382 9.5 56.5715 9.55333 56.2648 9.66C55.9582 9.76667 55.7248 9.91333 55.5648 10.1C55.4048 10.2867 55.3248 10.5067 55.3248 10.76C55.3248 11.0267 55.4248 11.26 55.6248 11.46C55.8248 11.66 56.1848 11.8133 56.7048 11.92L58.9848 12.4C59.9448 12.5867 60.6182 12.9067 61.0048 13.36C61.4048 13.8 61.6048 14.34 61.6048 14.98C61.6048 15.62 61.4382 16.1867 61.1048 16.68C60.7715 17.16 60.2915 17.5333 59.6648 17.8C59.0382 18.0667 58.2915 18.2 57.4248 18.2Z" fill="black"/>
</svg>
